<mxfile host="app.diagrams.net" agent="Mozilla/5.0 (Windows NT 10.0; Win64; x64) AppleWebKit/537.36 (KHTML, like Gecko) Chrome/135.0.0.0 Safari/537.36 Edg/135.0.0.0" version="25.0.3">
  <diagram id="d1ab7348-05c3-a1e3-ca4d-12c340fd6b49" name="Page-1">
    <mxGraphModel dx="2032" dy="769" grid="1" gridSize="10" guides="1" tooltips="1" connect="1" arrows="1" fold="1" page="1" pageScale="1" pageWidth="1169" pageHeight="827" background="none" math="0" shadow="0">
      <root>
        <mxCell id="0" />
        <mxCell id="1" parent="0" />
        <mxCell id="3ZfG_3-aHI2Txs_DAWEP-415" value="" style="fillColor=#F6F6F6;strokeColor=none;shadow=0;gradientColor=none;fontSize=14;align=left;spacing=10;fontColor=#717171;9E9E9E;verticalAlign=top;spacingTop=-4;fontStyle=0;spacingLeft=40;html=1;container=0;" parent="1" vertex="1">
          <mxGeometry x="140" y="119" width="1770" height="555" as="geometry" />
        </mxCell>
        <mxCell id="ItV2FaSNyb-uXS4h-aJt-2" value="Eureka-Client" style="sketch=0;points=[[0,0,0],[0.25,0,0],[0.5,0,0],[0.75,0,0],[1,0,0],[1,0.25,0],[1,0.5,0],[1,0.75,0],[1,1,0],[0.75,1,0],[0.5,1,0],[0.25,1,0],[0,1,0],[0,0.75,0],[0,0.5,0],[0,0.25,0]];rounded=1;absoluteArcSize=1;arcSize=2;html=1;strokeColor=none;gradientColor=none;shadow=0;dashed=0;fontSize=12;fontColor=#9E9E9E;align=left;verticalAlign=top;spacing=10;spacingTop=-4;whiteSpace=wrap;fillColor=#F1F8E9;" vertex="1" parent="1">
          <mxGeometry x="200" y="80" width="1010" height="721.5" as="geometry" />
        </mxCell>
        <mxCell id="3ZfG_3-aHI2Txs_DAWEP-420" style="edgeStyle=orthogonalEdgeStyle;rounded=0;html=1;labelBackgroundColor=none;startFill=1;startSize=4;endArrow=blockThin;endFill=1;endSize=4;jettySize=auto;orthogonalLoop=1;strokeColor=#4284F3;strokeWidth=2;fontSize=12;fontColor=#000000;align=center;dashed=0;entryX=0;entryY=0.5;entryDx=0;entryDy=0;" parent="1" source="3ZfG_3-aHI2Txs_DAWEP-421" target="3ZfG_3-aHI2Txs_DAWEP-519" edge="1">
          <mxGeometry relative="1" as="geometry" />
        </mxCell>
        <mxCell id="SU1acnZ5uy_IHtQN52sj-89" style="edgeStyle=orthogonalEdgeStyle;shape=connector;rounded=0;orthogonalLoop=1;jettySize=auto;html=1;exitX=1;exitY=0.5;exitDx=0;exitDy=0;entryX=0.5;entryY=1;entryDx=0;entryDy=0;dashed=0;strokeColor=#4284F3;strokeWidth=2;align=center;verticalAlign=middle;fontFamily=Helvetica;fontSize=12;fontColor=#000000;labelBackgroundColor=none;startArrow=none;startFill=0;startSize=4;endArrow=blockThin;endFill=1;endSize=4;" parent="1" source="3ZfG_3-aHI2Txs_DAWEP-521" target="SU1acnZ5uy_IHtQN52sj-86" edge="1">
          <mxGeometry relative="1" as="geometry" />
        </mxCell>
        <mxCell id="3ZfG_3-aHI2Txs_DAWEP-521" value="" style="strokeColor=#dddddd;shadow=1;strokeWidth=1;rounded=1;absoluteArcSize=1;arcSize=2;" parent="1" vertex="1">
          <mxGeometry x="210" y="510" width="170" height="60" as="geometry" />
        </mxCell>
        <mxCell id="3ZfG_3-aHI2Txs_DAWEP-522" value="&lt;font color=&quot;#000000&quot;&gt;IoT-Sensor-API&lt;/font&gt;" style="editableCssRules=.*;html=1;fontColor=#999999;shape=image;verticalLabelPosition=middle;verticalAlign=middle;labelPosition=right;align=left;spacingLeft=20;part=1;points=[];imageAspect=0;image=data:image/svg+xml,PHN2ZyB4bWxucz0iaHR0cDovL3d3dy53My5vcmcvMjAwMC9zdmciIHhtbG5zOnY9Imh0dHBzOi8vdmVjdGEuaW8vbmFubyIgd2lkdGg9IjIwIiBoZWlnaHQ9IjIwIiB2aWV3Qm94PSIwIDAgMjAgMjAiPiYjeGE7CTxzdHlsZSB0eXBlPSJ0ZXh0L2NzcyI+JiN4YTsJLnN0MHtmaWxsOiM0Mjg1ZjQ7fSYjeGE7CS5zdDF7ZmlsbDojNjY5ZGY2O30mI3hhOwkuc3Qye2ZpbGw6I2FlY2JmYTt9JiN4YTsJPC9zdHlsZT4mI3hhOwk8cGF0aCBjbGFzcz0ic3QyIiBkPSJNNyA3aDZ2Nkg3eiIvPiYjeGE7CTxwYXRoIGNsYXNzPSJzdDEiIGQ9Ik05IDBoMnY0SDl6TTUgMGgydjRINXptOCAwaDJ2NGgtMnoiLz4mI3hhOwk8cGF0aCBjbGFzcz0ic3QwIiBkPSJNOSAxNmgydjRIOXptLTQgMGgydjRINXptOCAwaDJ2NGgtMnptMy01VjloNHYyem0wIDR2LTJoNHYyem0wLThWNWg0djJ6Ii8+JiN4YTsJPHBhdGggY2xhc3M9InN0MSIgZD0iTTAgMTFWOWg0djJ6bTAgNHYtMmg0djJ6bTAtOFY1aDR2MnoiLz4mI3hhOwk8cGF0aCBjbGFzcz0ic3QyIiBkPSJNMyAzdjE0aDE0VjN6bTEyIDEySDVWNWgxMHoiLz4mI3hhOwk8cGF0aCBjbGFzcz0ic3QxIiBkPSJNMTAgMTBsLTMgM2g2eiIvPiYjeGE7CTxwYXRoIGNsYXNzPSJzdDAiIGQ9Ik0xMyA3bC0zIDMgMyAzeiIvPiYjeGE7PC9zdmc+;" parent="3ZfG_3-aHI2Txs_DAWEP-521" vertex="1">
          <mxGeometry width="30" height="30" relative="1" as="geometry">
            <mxPoint x="15" y="15" as="offset" />
          </mxGeometry>
        </mxCell>
        <mxCell id="z7NiXECVrPjFXj3bx5df-11" value="" style="strokeColor=#dddddd;shadow=1;strokeWidth=1;rounded=1;absoluteArcSize=1;arcSize=2;" parent="1" vertex="1">
          <mxGeometry x="330" y="216" width="90" height="44" as="geometry" />
        </mxCell>
        <mxCell id="z7NiXECVrPjFXj3bx5df-12" value="Trans" style="sketch=0;dashed=0;connectable=0;html=1;fillColor=#757575;strokeColor=none;shape=mxgraph.gcp2.cluster;part=1;labelPosition=right;verticalLabelPosition=middle;align=left;verticalAlign=middle;spacingLeft=5;fontSize=12;" parent="z7NiXECVrPjFXj3bx5df-11" vertex="1">
          <mxGeometry y="0.5" width="32" height="32" relative="1" as="geometry">
            <mxPoint x="5" y="-16" as="offset" />
          </mxGeometry>
        </mxCell>
        <mxCell id="z7NiXECVrPjFXj3bx5df-64" style="edgeStyle=orthogonalEdgeStyle;rounded=0;html=1;labelBackgroundColor=none;startFill=1;startSize=4;endArrow=blockThin;endFill=1;endSize=4;jettySize=auto;orthogonalLoop=1;strokeColor=#4284F3;strokeWidth=2;fontSize=12;fontColor=#000000;align=center;dashed=0;entryX=0;entryY=0.5;entryDx=0;entryDy=0;exitX=1;exitY=0.5;exitDx=0;exitDy=0;" parent="1" source="3ZfG_3-aHI2Txs_DAWEP-421" target="3ZfG_3-aHI2Txs_DAWEP-521" edge="1">
          <mxGeometry relative="1" as="geometry">
            <mxPoint x="110" y="330.5" as="sourcePoint" />
            <mxPoint x="200" y="361" as="targetPoint" />
          </mxGeometry>
        </mxCell>
        <mxCell id="SU1acnZ5uy_IHtQN52sj-88" style="edgeStyle=orthogonalEdgeStyle;shape=connector;rounded=0;orthogonalLoop=1;jettySize=auto;html=1;entryX=0.5;entryY=0;entryDx=0;entryDy=0;dashed=0;strokeColor=#4284F3;strokeWidth=2;align=center;verticalAlign=middle;fontFamily=Helvetica;fontSize=12;fontColor=#000000;labelBackgroundColor=none;startArrow=none;startFill=0;startSize=4;endArrow=blockThin;endFill=1;endSize=4;" parent="1" source="3ZfG_3-aHI2Txs_DAWEP-519" target="SU1acnZ5uy_IHtQN52sj-86" edge="1">
          <mxGeometry relative="1" as="geometry" />
        </mxCell>
        <mxCell id="3ZfG_3-aHI2Txs_DAWEP-519" value="" style="strokeColor=#dddddd;shadow=1;strokeWidth=1;rounded=1;absoluteArcSize=1;arcSize=2;" parent="1" vertex="1">
          <mxGeometry x="210" y="260" width="230" height="60" as="geometry" />
        </mxCell>
        <mxCell id="3ZfG_3-aHI2Txs_DAWEP-520" value="&lt;font color=&quot;#000000&quot;&gt;Server-Resource&lt;/font&gt;&lt;span style=&quot;color: light-dark(rgb(0, 0, 0), rgb(237, 237, 237)); background-color: transparent;&quot;&gt;-API&lt;/span&gt;" style="editableCssRules=.*;html=1;fontColor=#999999;shape=image;verticalLabelPosition=middle;verticalAlign=middle;labelPosition=right;align=left;spacingLeft=20;part=1;points=[];imageAspect=0;image=data:image/svg+xml,PHN2ZyB4bWxucz0iaHR0cDovL3d3dy53My5vcmcvMjAwMC9zdmciIHhtbG5zOnY9Imh0dHBzOi8vdmVjdGEuaW8vbmFubyIgd2lkdGg9IjIwIiBoZWlnaHQ9IjExLjI1OTk5OTI3NTIwNzUyIiBmaWxsLXJ1bGU9ImV2ZW5vZGQiIHZpZXdCb3g9IjAgMCAyMCAxMS4yNTk5OTkyNzUyMDc1MiI+JiN4YTsJPHN0eWxlIHR5cGU9InRleHQvY3NzIj4mI3hhOwkuc3Qwe2ZpbGw6IzQyODVmNDt9JiN4YTsJLnN0MXtmaWxsOiM2NjlkZjY7fSYjeGE7CS5zdDJ7ZmlsbDojYWVjYmZhO30mI3hhOwk8L3N0eWxlPiYjeGE7CTxwYXRoIGNsYXNzPSJzdDEiIGQ9Ik00LjY4IDEuNDJIMi40MkwwIDUuNjdsMi40MiA0LjI2aDIuMjZMMi4yNyA1LjY3eiIvPiYjeGE7CTxwYXRoIGNsYXNzPSJzdDAiIGQ9Ik0wIDUuNjdsMS4xMSAxLjk3IDEuNDYtMS40NS0uMy0uNTJ6Ii8+JiN4YTsJPHBhdGggY2xhc3M9InN0MiIgZD0iTTEzIDBINy4xMkwzLjgxIDUuNjNsMy4zMSA1LjU5SDEzbDMuMjktNS41OXptLTIuOTMgOC4zNmEyLjY0IDIuNjQgMCAxIDEgMi42Ni0yLjY0IDIuNjUgMi42NSAwIDAgMS0yLjY2IDIuNjR6TTIuNDIgMS40MkwwIDUuNjlsMS4xMSAxLjk3IDEuMTYtMS45NyAyLjQxLTQuMjd6Ii8+JiN4YTsJPHBhdGggY2xhc3M9InN0MSIgZD0iTTEzIC4wOGgwbC0xLjcgMy4zM2EyLjY2IDIuNjYgMCAwIDEtMS4yNSA1IDIuNjIgMi42MiAwIDAgMS0xLjE4LS4yN2wtMS43NSAzLjEySDEzbDMuMjktNS42M3ptMi4zMiA5Ljg1aDIuMjdMMjAgNS42N2wtMi40MS00LjI1aC0yLjI3bDIuNDEgNC4yNXoiPiYjeGE7CTxwYXRoIGNsYXNzPSJzdDAiIGQ9Ik0yMCA1LjY3TDE4Ljg5IDMuN2wtMS40NiAxLjQ2LjMuNTF6Ii8+JiN4YTsJPHBhdGggY2xhc3M9InN0MiIgZD0iTTE3LjU5IDkuOTNMMjAgNS42NWwtMS4xMS0xLjk3LTEuMTYgMS45Ny0yLjQxIDQuMjh6Ii8+JiN4YTs8L3BhdGg+PC9zdmc+;" parent="3ZfG_3-aHI2Txs_DAWEP-519" vertex="1">
          <mxGeometry width="30" height="16" relative="1" as="geometry">
            <mxPoint x="15" y="22" as="offset" />
          </mxGeometry>
        </mxCell>
        <mxCell id="SU1acnZ5uy_IHtQN52sj-54" value="" style="strokeColor=#dddddd;shadow=1;strokeWidth=1;rounded=1;absoluteArcSize=1;arcSize=2;" parent="1" vertex="1">
          <mxGeometry x="290" y="466" width="90" height="44" as="geometry" />
        </mxCell>
        <mxCell id="SU1acnZ5uy_IHtQN52sj-55" value="Trans" style="sketch=0;dashed=0;connectable=0;html=1;fillColor=#757575;strokeColor=none;shape=mxgraph.gcp2.cluster;part=1;labelPosition=right;verticalLabelPosition=middle;align=left;verticalAlign=middle;spacingLeft=5;fontSize=12;" parent="SU1acnZ5uy_IHtQN52sj-54" vertex="1">
          <mxGeometry y="0.5" width="32" height="32" relative="1" as="geometry">
            <mxPoint x="5" y="-16" as="offset" />
          </mxGeometry>
        </mxCell>
        <mxCell id="SU1acnZ5uy_IHtQN52sj-56" value="" style="group" parent="1" vertex="1" connectable="0">
          <mxGeometry x="20" y="337" width="90" height="120" as="geometry" />
        </mxCell>
        <mxCell id="3ZfG_3-aHI2Txs_DAWEP-421" value="Server&lt;div&gt;Room&lt;/div&gt;" style="rounded=1;absoluteArcSize=1;arcSize=2;html=1;strokeColor=none;gradientColor=none;shadow=0;dashed=0;strokeColor=none;fontSize=12;fontColor=#9E9E9E;align=left;verticalAlign=top;spacing=10;spacingTop=-4;fillColor=#F3E5F5;" parent="SU1acnZ5uy_IHtQN52sj-56" vertex="1">
          <mxGeometry width="90" height="120" as="geometry" />
        </mxCell>
        <mxCell id="3ZfG_3-aHI2Txs_DAWEP-422" value="" style="strokeColor=#dddddd;fillColor=#ffffff;shadow=1;strokeWidth=1;rounded=1;absoluteArcSize=1;arcSize=2;labelPosition=center;verticalLabelPosition=middle;align=center;verticalAlign=bottom;spacingLeft=0;fontColor=#999999;fontSize=12;whiteSpace=wrap;spacingBottom=2;html=1;" parent="SU1acnZ5uy_IHtQN52sj-56" vertex="1">
          <mxGeometry x="10" y="40" width="70" height="70" as="geometry" />
        </mxCell>
        <mxCell id="3ZfG_3-aHI2Txs_DAWEP-423" value="" style="dashed=0;connectable=0;html=1;fillColor=#757575;strokeColor=none;shape=mxgraph.gcp2.laptop;part=1;" parent="3ZfG_3-aHI2Txs_DAWEP-422" vertex="1">
          <mxGeometry x="0.5" width="50" height="33" relative="1" as="geometry">
            <mxPoint x="-25" y="18.5" as="offset" />
          </mxGeometry>
        </mxCell>
        <mxCell id="SU1acnZ5uy_IHtQN52sj-60" value="" style="shape=waypoint;sketch=0;size=6;pointerEvents=1;points=[];fillColor=default;resizable=0;rotatable=0;perimeter=centerPerimeter;snapToPoint=1;strokeColor=#dddddd;shadow=1;strokeWidth=1;rounded=1;absoluteArcSize=1;arcSize=2;" parent="1" vertex="1">
          <mxGeometry x="722" y="280" width="20" height="20" as="geometry" />
        </mxCell>
        <mxCell id="SU1acnZ5uy_IHtQN52sj-95" style="edgeStyle=orthogonalEdgeStyle;shape=connector;rounded=0;orthogonalLoop=1;jettySize=auto;html=1;exitX=0.75;exitY=1;exitDx=0;exitDy=0;entryX=0.5;entryY=0;entryDx=0;entryDy=0;dashed=0;strokeColor=#4284F3;strokeWidth=2;align=center;verticalAlign=middle;fontFamily=Helvetica;fontSize=12;fontColor=#000000;labelBackgroundColor=none;startArrow=none;startFill=0;startSize=4;endArrow=blockThin;endFill=1;endSize=4;" parent="1" source="SU1acnZ5uy_IHtQN52sj-86" target="SU1acnZ5uy_IHtQN52sj-91" edge="1">
          <mxGeometry relative="1" as="geometry" />
        </mxCell>
        <mxCell id="ItV2FaSNyb-uXS4h-aJt-16" value="" style="edgeStyle=orthogonalEdgeStyle;shape=connector;rounded=0;orthogonalLoop=1;jettySize=auto;html=1;dashed=0;strokeColor=#4284F3;strokeWidth=2;align=center;verticalAlign=middle;fontFamily=Helvetica;fontSize=12;fontColor=default;labelBackgroundColor=default;startSize=4;endArrow=blockThin;endFill=1;endSize=4;" edge="1" parent="1" source="SU1acnZ5uy_IHtQN52sj-86" target="SU1acnZ5uy_IHtQN52sj-51">
          <mxGeometry relative="1" as="geometry" />
        </mxCell>
        <mxCell id="SU1acnZ5uy_IHtQN52sj-86" value="" style="strokeColor=#dddddd;shadow=1;strokeWidth=1;rounded=1;absoluteArcSize=1;arcSize=2;" parent="1" vertex="1">
          <mxGeometry x="470" y="367" width="160" height="60" as="geometry" />
        </mxCell>
        <mxCell id="SU1acnZ5uy_IHtQN52sj-87" value="&lt;font color=&quot;#000000&quot;&gt;Rule-Engine&lt;/font&gt;&lt;div&gt;&lt;font color=&quot;#000000&quot;&gt;(EASY-RULES)&lt;/font&gt;&lt;/div&gt;" style="editableCssRules=.*;html=1;fontColor=#999999;shape=image;verticalLabelPosition=middle;verticalAlign=middle;labelPosition=right;align=left;spacingLeft=20;part=1;points=[];imageAspect=0;image=data:image/svg+xml,PHN2ZyB4bWxucz0iaHR0cDovL3d3dy53My5vcmcvMjAwMC9zdmciIHhtbG5zOnY9Imh0dHBzOi8vdmVjdGEuaW8vbmFubyIgd2lkdGg9IjIwIiBoZWlnaHQ9IjExLjI1OTk5OTI3NTIwNzUyIiBmaWxsLXJ1bGU9ImV2ZW5vZGQiIHZpZXdCb3g9IjAgMCAyMCAxMS4yNTk5OTkyNzUyMDc1MiI+JiN4YTsJPHN0eWxlIHR5cGU9InRleHQvY3NzIj4mI3hhOwkuc3Qwe2ZpbGw6IzQyODVmNDt9JiN4YTsJLnN0MXtmaWxsOiM2NjlkZjY7fSYjeGE7CS5zdDJ7ZmlsbDojYWVjYmZhO30mI3hhOwk8L3N0eWxlPiYjeGE7CTxwYXRoIGNsYXNzPSJzdDEiIGQ9Ik00LjY4IDEuNDJIMi40MkwwIDUuNjdsMi40MiA0LjI2aDIuMjZMMi4yNyA1LjY3eiIvPiYjeGE7CTxwYXRoIGNsYXNzPSJzdDAiIGQ9Ik0wIDUuNjdsMS4xMSAxLjk3IDEuNDYtMS40NS0uMy0uNTJ6Ii8+JiN4YTsJPHBhdGggY2xhc3M9InN0MiIgZD0iTTEzIDBINy4xMkwzLjgxIDUuNjNsMy4zMSA1LjU5SDEzbDMuMjktNS41OXptLTIuOTMgOC4zNmEyLjY0IDIuNjQgMCAxIDEgMi42Ni0yLjY0IDIuNjUgMi42NSAwIDAgMS0yLjY2IDIuNjR6TTIuNDIgMS40MkwwIDUuNjlsMS4xMSAxLjk3IDEuMTYtMS45NyAyLjQxLTQuMjd6Ii8+JiN4YTsJPHBhdGggY2xhc3M9InN0MSIgZD0iTTEzIC4wOGgwbC0xLjcgMy4zM2EyLjY2IDIuNjYgMCAwIDEtMS4yNSA1IDIuNjIgMi42MiAwIDAgMS0xLjE4LS4yN2wtMS43NSAzLjEySDEzbDMuMjktNS42M3ptMi4zMiA5Ljg1aDIuMjdMMjAgNS42N2wtMi40MS00LjI1aC0yLjI3bDIuNDEgNC4yNXoiPiYjeGE7CTxwYXRoIGNsYXNzPSJzdDAiIGQ9Ik0yMCA1LjY3TDE4Ljg5IDMuN2wtMS40NiAxLjQ2LjMuNTF6Ii8+JiN4YTsJPHBhdGggY2xhc3M9InN0MiIgZD0iTTE3LjU5IDkuOTNMMjAgNS42NWwtMS4xMS0xLjk3LTEuMTYgMS45Ny0yLjQxIDQuMjh6Ii8+JiN4YTs8L3BhdGg+PC9zdmc+;" parent="SU1acnZ5uy_IHtQN52sj-86" vertex="1">
          <mxGeometry width="30" height="16" relative="1" as="geometry">
            <mxPoint x="15" y="22" as="offset" />
          </mxGeometry>
        </mxCell>
        <mxCell id="SU1acnZ5uy_IHtQN52sj-91" value="" style="strokeColor=#dddddd;shadow=1;strokeWidth=1;rounded=1;absoluteArcSize=1;arcSize=2;" parent="1" vertex="1">
          <mxGeometry x="631" y="620" width="202" height="60" as="geometry" />
        </mxCell>
        <mxCell id="SU1acnZ5uy_IHtQN52sj-92" value="&lt;font color=&quot;#000000&quot;&gt;Device-Controller-API&lt;/font&gt;" style="editableCssRules=.*;html=1;fontColor=#999999;shape=image;verticalLabelPosition=middle;verticalAlign=middle;labelPosition=right;align=left;spacingLeft=20;part=1;points=[];imageAspect=0;image=data:image/svg+xml,PHN2ZyB4bWxucz0iaHR0cDovL3d3dy53My5vcmcvMjAwMC9zdmciIHhtbG5zOnY9Imh0dHBzOi8vdmVjdGEuaW8vbmFubyIgd2lkdGg9IjIwIiBoZWlnaHQ9IjExLjI1OTk5OTI3NTIwNzUyIiBmaWxsLXJ1bGU9ImV2ZW5vZGQiIHZpZXdCb3g9IjAgMCAyMCAxMS4yNTk5OTkyNzUyMDc1MiI+JiN4YTsJPHN0eWxlIHR5cGU9InRleHQvY3NzIj4mI3hhOwkuc3Qwe2ZpbGw6IzQyODVmNDt9JiN4YTsJLnN0MXtmaWxsOiM2NjlkZjY7fSYjeGE7CS5zdDJ7ZmlsbDojYWVjYmZhO30mI3hhOwk8L3N0eWxlPiYjeGE7CTxwYXRoIGNsYXNzPSJzdDEiIGQ9Ik00LjY4IDEuNDJIMi40MkwwIDUuNjdsMi40MiA0LjI2aDIuMjZMMi4yNyA1LjY3eiIvPiYjeGE7CTxwYXRoIGNsYXNzPSJzdDAiIGQ9Ik0wIDUuNjdsMS4xMSAxLjk3IDEuNDYtMS40NS0uMy0uNTJ6Ii8+JiN4YTsJPHBhdGggY2xhc3M9InN0MiIgZD0iTTEzIDBINy4xMkwzLjgxIDUuNjNsMy4zMSA1LjU5SDEzbDMuMjktNS41OXptLTIuOTMgOC4zNmEyLjY0IDIuNjQgMCAxIDEgMi42Ni0yLjY0IDIuNjUgMi42NSAwIDAgMS0yLjY2IDIuNjR6TTIuNDIgMS40MkwwIDUuNjlsMS4xMSAxLjk3IDEuMTYtMS45NyAyLjQxLTQuMjd6Ii8+JiN4YTsJPHBhdGggY2xhc3M9InN0MSIgZD0iTTEzIC4wOGgwbC0xLjcgMy4zM2EyLjY2IDIuNjYgMCAwIDEtMS4yNSA1IDIuNjIgMi42MiAwIDAgMS0xLjE4LS4yN2wtMS43NSAzLjEySDEzbDMuMjktNS42M3ptMi4zMiA5Ljg1aDIuMjdMMjAgNS42N2wtMi40MS00LjI1aC0yLjI3bDIuNDEgNC4yNXoiPiYjeGE7CTxwYXRoIGNsYXNzPSJzdDAiIGQ9Ik0yMCA1LjY3TDE4Ljg5IDMuN2wtMS40NiAxLjQ2LjMuNTF6Ii8+JiN4YTsJPHBhdGggY2xhc3M9InN0MiIgZD0iTTE3LjU5IDkuOTNMMjAgNS42NWwtMS4xMS0xLjk3LTEuMTYgMS45Ny0yLjQxIDQuMjh6Ii8+JiN4YTs8L3BhdGg+PC9zdmc+;" parent="SU1acnZ5uy_IHtQN52sj-91" vertex="1">
          <mxGeometry width="30" height="16" relative="1" as="geometry">
            <mxPoint x="15" y="22" as="offset" />
          </mxGeometry>
        </mxCell>
        <mxCell id="ItV2FaSNyb-uXS4h-aJt-8" value="" style="edgeStyle=orthogonalEdgeStyle;shape=connector;rounded=0;orthogonalLoop=1;jettySize=auto;html=1;dashed=1;strokeColor=#4284F3;strokeWidth=2;align=center;verticalAlign=middle;fontFamily=Helvetica;fontSize=12;fontColor=default;labelBackgroundColor=default;startSize=4;endArrow=blockThin;endFill=1;endSize=4;curved=0;startArrow=block;startFill=1;" edge="1" parent="1" source="z7NiXECVrPjFXj3bx5df-1" target="ItV2FaSNyb-uXS4h-aJt-2">
          <mxGeometry relative="1" as="geometry">
            <Array as="points">
              <mxPoint x="1335" y="371" />
              <mxPoint x="1335" y="370" />
            </Array>
          </mxGeometry>
        </mxCell>
        <mxCell id="ItV2FaSNyb-uXS4h-aJt-20" value="" style="edgeStyle=orthogonalEdgeStyle;shape=connector;rounded=0;orthogonalLoop=1;jettySize=auto;html=1;dashed=0;strokeColor=#4284F3;strokeWidth=2;align=center;verticalAlign=middle;fontFamily=Helvetica;fontSize=12;fontColor=default;labelBackgroundColor=default;startSize=4;endArrow=blockThin;endFill=1;endSize=4;" edge="1" parent="1" source="SU1acnZ5uy_IHtQN52sj-51" target="ItV2FaSNyb-uXS4h-aJt-15">
          <mxGeometry relative="1" as="geometry">
            <mxPoint x="882" y="140" as="targetPoint" />
            <Array as="points">
              <mxPoint x="930" y="140" />
              <mxPoint x="930" y="140" />
            </Array>
          </mxGeometry>
        </mxCell>
        <mxCell id="SU1acnZ5uy_IHtQN52sj-51" value="" style="editableCssRules=.*;html=1;fontColor=#999999;shape=image;verticalLabelPosition=middle;verticalAlign=middle;labelPosition=right;align=left;spacingLeft=20;part=1;points=[];imageAspect=0;image=data:image/png,iVBORw0KGgoAAAANSUhEUgAAAgAAAAC/CAYAAACIe2RzAAAABGdBTUEAALGPC/xhBQAAACBjSFJNAAB6JgAAgIQAAPoAAACA6AAAdTAAAOpgAAA6mAAAF3CculE8AAAABmJLR0QA/wD/AP+gvaeTAAAAB3RJTUUH6AcYBh8VtUQG6AAAKAVJREFUeNrt3Xl4VdW5P/Dvu/Y5mUiADIBTHYKKCsFarIhwkSEJogJO0JZ6tb3tvVwtk9rp3lvbdLjPr63+hIDDj9bWtlZtQ1vLoEgIgyBhcKqCE+CEKEiSk5CQkOScvd/fHwmQYa99TkJQKt/P8/A8mn32Pvusfc5+37X2GgAiIiIiIiIiIiIiIiIiIiIiIiIiIiIiIiIiIiIiIiIiIiIiIiIiIiIiIiIiIiIiIiIiIiIiIiIiIiIiIiIiIiIiIiIiIiIiIiIiIiIiIiIiIiIiIiIiIiIiIiIiIiIiIiIiIiIiIiIiIiIiIiIiIiIiIiIiIiIiIiIiIiIiIiIiIiIiIiIiIiIiIiIiIiIiIiIiIiIiIiIiIiIiIiIiIiIiIiIiIiIiIiIiIiIiIiIiIiIiIiIiIiIiIiIiIiIiIiIiIiIiIiIiIiIiIiIiIiIiIiIiIiIiIiIiIiIiIiIiIiIiIiIiIiIiIiIiIiIiIiIiIiIiIiIiIiIiIiIiop4hLALqKWPurc1Jkmhqc13W3nVFEmOJEBExAaDPsPx5FWNEzD0QXNr6p4MCrPRUl2oo6anVM3tXsZSIiJgA0Gcp+BdHpgv0dwDClpe4gPxDoMs9T/9cdkfOGyw1IiImAPRPrHB+5HYVXQjAdGG3d6BYrkaXxSLZ6/iogIiICQD9EylYEPkeVH/e3f215ZtXCcgKT3SZZ9wV677V/yBLloiICQCdiFSlYGHkHijuOqbDtPnmKQCIHAJkI4DlzbFYyYY7+u1lYRMRMQGgE8CYIg2FM6t/C+i/Wr5MZQBiClzVGtqbAHEAhBJIAI7+N+BCsFkVS+G4S9be3u8tlj4RERMA+jSC/yPvpoTr+vwZqpP9Gwbws7K52XcDQP78qp+K4AcAtjuemeQZvVxVJ0MwEUDfBBIAQNr8N2QHjC5RxdJ+/TI3LZ4mLq8IERETADrewf+B/elJMedJBfL9Yz++WzYn+962fyycXzVPBXMBbJbmaH7pd06pn1qiTvXe6hGi3rVq5DoAgxJLANolDFUqskYVy92U2JMbv9Gv7kQrr5G/qcioN6kDjaO5nqe5h9ymRW+dgOfZ1pmP1WSGUpInCvRiAOcotC8gDgQNCtRAUA1P9iEk2z3Rbe9PSnkPIkcu0aAlmtFsormeFxsIQa56sn/3dal/4K+nmzZq/xAwUA1yXRcbMEp2x91nsw6AIBeCgVCkYLg8zIIkJgDUbRMX1PWLaXQFoMN8Nscg+u+rZuf8ruOGoiI15ZlVjypkOoCnIylZ1704Q6JtXzN+fmSoiDdJRaZA5FIAkkAC0PrfAgCHFFisTuz7G2Z8un0GLv1d7XcVuB7AQAX6tfkM9S+/m9EbReKdqIE/KTl8LyDTFUg5fEewX4cjF6JOgdch0NaA06/tNYLgJ7snp/6Iv6DEOBt1ioje2vr9yQWQfrjsPSO5GC7v+qTegq0oAXA+gIEAerXZ+hcMl6ksWWICQN2SXxw5E9BSaa2pd9Aonn6l9I6cv9v2H7ZIw1mNkScBXAPFEyNrsm4usgTCCfMqTnXDziRVTFZgPAQpCSQAra0H+EBNbPinmQQMe6R2OwSDfYLn1pdv7T38RLy+uSWHzjSiGyA4s01ZJpoAtHt9x2sE1am7r0v7C39FiQlt9BZDcJNP2dd5l0uftq0tR2zSs2HwruXO/kNcJj9lyVIQwyIgP4ULKy8Q6Aa/4K9AnRi9Jij4A8CLMyR60G2YqsAGCL7yXGbVQttrV97Rb2/ZzKxfrZ6VdW2osTkHkBsAfQRARQKn+znjhe/71IL/Ig0DOM93o2LbiXh9x6zVkCPeMqAl+Pe0mJht/BV1SZ5vHBds9w3+AOD47wMA8PAqi5SYAFDXg39xxTD1sN4SHCpVdXzprJw1iRxr052fO4QUmQToywK5vaC46ifx9in9zin1a2ZmPrl2Zva/5fTPPBWKUQr5bdA+Cr2h8A/7en0qBZZUfwGAJN8buNHtJ+I13lPR8O8Ahh6nwx/6qCl5F39JCVqrKQDO9f1ee7ot4EtvTwAcMAEjJgDUNfnzKsYozBpA+vnFDfV09Oq5Oc935ZhlM7IOSFLsKgA7ANxdUFw1J+5OqjL6gcoLKz6OfE1EvynQ8fHCcFNd8mWfRpmJukPsH8M5IRMAEfxnwOb3ADwI0Z8ocA9UfgVgMYCNABJZ1+E1cKRGwsIpuAiAY7lF2wO5WBOAg7jU8miAqI0Qi4AOK5hfMRli/gwgxWfzDtcxhWvmZL7fnWOX3nbK/nH3Vxc6rvccgHn5C6tqy2ZlP3J4+4j7PkhNC/W6VAUjAYzEA9UjFCb78DNoBWoBlAp0ExQHIPJfONzZrpVr9AoAaz+Fohts/YF5OOESgEEltYM8a+1fVn4uK+XadWPtUzSfW1LXLxYKD4PoCktywdpnVyisCaQRbPe63gKwzfrYgIgJAHUK/sWV/4qWZna/78Q/PI1dtWbmgI+P5T3WzMx8P39eZaEY2QTFb8YvqLoZwDsABkNkGNo1o8sOwFuuIps8D+XjKjNfa9uBcMyD1arAvHY3S5iRn1J12nYD3/v819P3nWjX2oUzSqwfRX8cFPwBYNe0jIrcJfWVruffgOgFNVtT5zL3vLy2nSvbikXxmu+GnZqMCM63tAyw/IkJACWmcEHlbFWZD59RIQpsQIpMWj1jwIGeeK+yO3LeKCiuWglgmgDjAIxToAHAZgXKoSiPIrx5w6yMdp3/1ncMYp6sN0Y7nKtejiI1n8KQu2QATymwQyA7VWQnotGdL3+j727cegIGnKPLNnfUeEZm6vOJPLz3PDPEfnyznb+qLl2QPEsNfy9Gi38n2AgugG0FTmUCQEwAKJGa//yqH6vih5bNT9W7DVM3zfjcoZ5radh/HtpMKCSKVakpTdctm3FaQ1eO41T2eVX71xwEkN7mz5kjcyIXboSl1nScvPD13hN9N3zzBL3ois/7DQBW4M14tf+jL5ahsLQyh93oK/xlJc5DQFO+NWlAHtS6jSMAKCHsBHiSKipSU7AgshDiH/wF+ngkJev6TXf2YPCfV/15wNkAIAtAIwCokTVdDf4AsK5IYirY0um8jTOSVzcocKtAcJHvzUAST5xU1H/YGlDx9g0Z+1nQCdqgmQKc5t8wYH+UYoJGAOgnmwATWwDonyz4b8ys/h3Uf1EfhT44sjp7VlEPNqXnF0dGAd4yAGkC+YoL87yBuwuqX+juMUWxUYHxHW6aVwD41YkTbLvQGSvB1w8u0SSn8WDfhpz0A7uulqaunNKgxY1ne4Le/lVReT3hsgfy1Pe7g1eOezl1MGCl9vp4gtQn8tozyjV1zxVy6BP9HqzUXmmp6O0KMtQgyYnhwKF67MfV0hQy9kCusD9KUVg7Dn6I4dJ5pMYLGkYj+iEJmVBEodiHy6WWd0MmAHSSKc+qvssa/BU/K5ubc3dZD75fQXHkakAXA1BVTF41N2slAOQviOxCS8Dubnzd6NMM/Ym2AIz4fcPpzdo8GJ4zEEZzRZDrAQOhyI0+fuCsbUC134l/4Y+1A101QyEYDEGeAkPwWN3WV4GvtX3p1BJ13owdHKWKsRAZq8AFiNX3j4UFSQfqvYueqN/kwfvBm1/JWOd3fhf8qf5aNbjlcCl50H72Wj2mD/xr/djWANNa1QRUpfHdV1OnHO5bcW5JXb8YMMCSGliD1hlLGs/1DC40QK6H1jnrgVw81RT+yDaRUpukZ3/vpnGiJheKXM/oQIHkAsiNIfpbAO2HlpZoUt/M6GBHcbEKLoZgqKp8vr4hth3AlfGua+9nNMtLchcaaXnO7rXJfBSor29yZsKSdKQ+p6M8z5ss0MsgMkzhpbut+0IB1wGSeourG71dgFqTESPYFjCWcqglMzja/P+8XgYX0wD8C1wMRRgpRy6sQLFFt0HxAIbjYciJOVU1MQGgnq79e5Fv+z0DFsWdq+Zmz+vJ9ytYEPkKVH8P4KAA166am13epra+URW3jplXffa6OzLf6+qxk0LelmZXXLQfQ33uFQ/V9S+/7ZNpho5q9HeiJl9bExE9Ejn1g21f7Vvtt8+w39UNijnmjSPT7mpLcBAxm48EvD/WXSSQr70RPXgzIKd2nJK3TXgeKSKrBj9+cNJr09Of8akpXg1gKtrc9+1VbR0MyOCOBwCwrm3HymgolCfWpEytz5/V4DkBBujRWHjYU/HKuaJP7FLxZAWgLWXV/nvbKenI6ROb4yl+qUD766IYnVnWNLQ6PznwObkkxx4WlevVv/njVr/gn7I2OkYc+SU874tyOFuwc+A/xfZhbtSDf4vMBs0EcIZlv9exVW+G4r/h4cKAUxAAQyFYhK3Ih+qXOHTw5MM+ACeZjZkVAyHo77NpS2kPB//8BZHboPpHAao8lTGlc44GfwBQT8oBIBTqXitA2YysA/Dp8OeY2BWfWIFansWqiPX5retYen17Gr34sQOXDXn04FIj2C6i3wFwaiKJvGdQDNVOt3sRHXysH1FUn+1wTPsMguL5fu7TltXmiK3VQBMYNuhpnn1T51YHzw0tAuA/ckWcmYG1/zXNt6viesvmhfVXhjqtcpi2zr1djFkFyBd74mslirdhe1SRHPD8XzATikcBXNiFt5uKLfg6745MAOgzzpUkW1PfmfmLIn16LPgXV/6PqD4I4P2YOKNWz8161efLV96SCHjdbrZXyEafgPKJPAYYtqg2B5agZjx7D27b81tP8GVVs0VEJ6HrC3WdP3hx7UCf8rnoWD+nZ8y6DlHGFoBc16S97h/QwvakwSS0bkCetdEhFOr0npGrpRaqv7a0UtycUabZftvS1zQNFsi9luu25WA/59sd/95rfXQCRO9HD7aoqgkYAeAFJAAtQ1K7kXEEzgxJTADosyD7lD7vWWpGp5omXVF4zzHOp68qhcVV9wjkZwDeCAlGr5nd922/l5bOznwNQDWMdLvGLuL5JADyibQAaNizBjUN6MEtwMWWv/c+pvNxnbPa/v/gkoOnAMg5xo/ZFIumbEkkGAvw9keTpMH/OsmQgJtQ/ARAvDxLUN5dXSC+NX0JufMBNPtsSjUS61zjXaspouZxBVJ99qkKw/kyBkv7463UXqrye/Twyqri2deQMAhMALrrEuzUZBATAPrsWtwyR/tW/9iNEZoUfnJqkSZ159hTS9QpWBD5lQLfhuKFaDQ8esXs7D0B0VsBbIEir9utDzFT7hOJho155N2U412WjkhAU6wTFNSGHJcTEs1qVx0H+glQJkAZWv5tDdj7HUDLOv4Txa/3TGvTFF2kRi3Ny6oSVGu1feZon/qkt+J/NBnsn3TYE62q8WkfAnjC/3g6EyXabv79PureL36d6wSeejq9Zqy813FTWop3M6wdIgEAh6CyVICfq+L7UHwfgh8IdBEEL9pbieytIioJJwD7ATwO4AdQzIDg/6B1+K2PEA4gi3fIkws7AZ6EBChXoKDDn/8BRQSCggOZVY8UFem/dmUY4MQFmlyzN/IEgOsFKGsOu9evm5t9MG6tVVAOxVUa1csArOrqZ1k/q++7ox+q/gjtx1Inu419hqFl8Zrj1wIAzbNU/GK1B3r5BrXBJfvT0YhzuvA2uwE8KcArnqJZBL8AcLp/jG1fE35zWvo2tLnO5/254UYR/YslwP5s19S0R+KdzMBLmnJdr93kS20PEjBxjQzx68YowFuvTZPmwFarZQ2nA8i2XITtwQ1Seq+I3NK5hi5nZWa7V1cDywCgT1nsJqh+wz95kbvrx4dKLe8QMN2TPBNSueWgZTa/cLnOBXSY3zY3ZGkVURVswZCA9gYFsASKBzEcZZ069m3V3lB8y5KksRMgWwDos04F5T5/zjroNVwLYL1CppdnVt2f6PEK79nXK6aRpQCuh8jS5t61k9Z9q//BRPZ1oBtbYkf3h+8JfD6PMZ/AYwCxNYW/tWu2//h8pzF5cAK/O0+Bv0IwZvvO9HO2fzV97rbp6Y+8/tX0xyB4xlqWxnkzuJyCOtJ5Cc0eF1Mvz15Lt4wAUJWWEQa+SVTc5n9jTF7AtQ+c9KZ6QvJ2qD5j+dAzASBzlZ4JUdvcEcvr1puf+21I36j9AdjmsdjVmCY32oJ/6wnYWkUa8D58H5thM86C7VGR4CUorsBwuR6XyyrfXv1q/e65yEQ1745MAOiz3+yzGUDHIcZnZmhaTkgwSUVeUshtBcVVP4l3rGserMlEcngVgEJAHo1GMm9c9/VzGhM+mcbYFgAxRfcDtqfw6wh4fBOAIjWwrAIYFNRM0GMDwIPoHzTknr/9qxk3bZue8WyndQ3UOvyr5rVpqbvjZErWznuHUtPeSCjl8ezn74p/s/XZf2+0Bi3V+B0AnaDJchyJu+6AMeYeSyJckLmyaYhnYn8CkOnzkvfhOl+zri0Rc8fa7qEqWIhLpSFOJm77XG8ELKcc9P25A5fL5jjFYRsV8g7O69qkUsQEgP4JrZidXQv4NJ06uGLF7OzaMMJXKfAWgLvzi6u+bTvOhHkVpzZH3WdVMUIgC0dWZ35tXVGCc8m3Kv3OKfWAvArRy6d2eCabeEXc+LVojPIbFtdTvnBGbS4A/w6TAUMA1X7T9zwjl7z61d63bv+yf6fJOAEgbiBVSwuAArtsnfc6v9Z6/g17Xk5+x29D1AnoAGgSWTnQ+p6xXuHwm/H2rswPrxXgBd9GC8eUAhjhl5q6jnd9Xb7PrHqHy8LTL9qvswmeS0vVQCzBOHhY5NCAi5PIFMC2/V8HMQGgk4NAfTrPyciWBCGjwsRQAGC3AL8snF/V6dlo4cKac9TIBgB5UP1F6Zys2d2dOlhaVgHMqKmo6Vbv5gbT+2W0rCjYVs7oRbXnHrdWlKCafMAQQIF1DP3b26enBzbDDy45kAXLvPEQCdz3jBJNbZ05z2fXxBePsc0BoMB2a03ZnvTAS+ARANTagXDne2MlsdYm0XstW061JEvfargy6eU4hXGJZUtF878gsEUleT0GQv0TyKApgI29Fcd/CuC2XtAzAfS1bOX6AUwA6GSh2rnW7MnR5/Cld2V/YFxcDSCigkUF86uOzCY34b6qweq5zykkVwV3rJqb8/1jORev9Rm+183x+y/OkCiA5zt/Ru+4zQdgWwyn5fO43RkBEDcQimuG2uNb8P69TMNgtJ8x8ei+niS0fOwZJZoKYKAliQhIejxbs3Pd3qtTgh9blKijwAWWAJzwssORSNJfAHk7sVxBHq4bl/TbBF56saWV5KV4s+ppyF6TN449IVN7DT7+NXQDJxB6A8QEgE7eBEBUh455YP+RHt4r78x+TVSvAXAIgj/kL6iaW1Bc9U3PwXMA+glketns7PnH/CVsfYaviu6vC+AzIZDK8esHIPZm6bp/fK3v+34bLnmi/jTYxuUnsIa72ofSwdPApAOeBiQsltn7OtVaww0X2ZIIhQSNALC8t2yLFyhP69N8HvzH5UO7UmudJi7gzY//PcIrB1Kd2fFel/acngbLyARJpFXDs3emjNkmAXpak2FfMyGRlpShAckBHwEwAaCTRdkdfd8BsLfDn0PhmBne9g+lc3O2iOIGAEYU8wD8GkBfiMwqnZP1px45lzlZuwHskWNZyEc9n34Ax29CINvzdAG224KaF40F1cC2J/Brtc6Gl5Livh6csNhrf444CT0CcBHQG982BHCthmCZ8z6REQBewKx3Rr3tXblmEg3/Af4TAx1WbWKx65HAaoHSbL+WQZNAxU2KFJW4TPb5bsvBhbAP3Y5fFvbHBx7S8BaICQCdTM0A2ORzY+oUhEvnZq9S4IEOrQU3FS6MTJy4oGdmD1NFOYCzxj1UeXp39o8lOZvQeaD5haMerMns6WIb0dIUfm5Xa2IS1G8gkfnw1dhaAN7/x/WZNcH7Wt/74I4bkt9NKIAGtCKEYjHfAHTmgebzYZmeNuixQZvvqL3lwtVtXbluXlLshwCSAj7fjw9MSE2oLOBYrwUck1BCNdRyR+7eFMAGxzKd8ru4OLHllIkJAH1WiN/wOf9auBF58chtCNitwHj19OmYRioLi6v+kj+/8pbx99dmd/tUpGVhIMS6V2vf9M0+EaDTc0yjxhvR08XmNRywNoUHToZjD2aNg5IzdsXJkATQiyy1+2O5+W9LfBU4awKw7+0b/FdfVCdovXtNYOSCvcwq65PfTvSaZa5qmi6Ku4JzJLkm8S+BtSxi9c0IHpnwgqYByLWcxbaAm7V1GCeicd7zNU0CcL5lK5v/mQDQSdcA4D8hkP9wPG2ZtERFp66ak31WSHCmitwOwUaFXisivzdu9OOC4qpnC+ZX3TXhvv1d64Fv3MPn0v3HAIItnROLnp8QyHODmsIDxrXbV9F7fbF93HdLU8bjjdYe3F6cJufzH7cvWiQiXahFWyY+Cuq/4Hn2IYBN0USe4edZg1acMjusb2nz5wH5dQIvLeizuvkLCWastkdAOxBnZEK4GUNs917x7CMA1N6BdFfcxxYHMMja+qEcAcAEgE46mZGsl9B5bvDetftqhnS+R8gUAB+Vzcp+EgBWzM7eUzY766FVs7OvCon0V+BLCv0TgDwI7vUcZ2dBcdXrBfMrfz5+XtWIopaJc6xqQtn/ANAA7WbAVhUoPudTUxve44lTwIx6ov6LuIxZqyFVuaCrtb7DnMAZ+OK0AITNxfb4nFgz+vnLanMAnOJfHhJnCmBfH354Q+/AYWsDVmovwDptckLP/zPKNNsI/gYgLbFri2/HfVGJOoBeaNk/gQ6AbsCjoMD9L7a24sS/04/oSuJMTADoM25xkTTDZ4IU9doPxxt/f8X5AC6EYplfc/GK2dm1ZXOyS8rm5Nwcrc7qL0bHAygGkAqR7xmD8o19I3sLiqseLphfMXnSoo863YxfnCFRBZ6H6OcTXZFwzAP7T/mXB6uvG/1g5J7R/6/mRQD5Pq0c2T1dbmLvTPXR1lv9g1rtBwfPEyCly60Gh19j1FqTFi84AEhA5z3jSGIdAKP25Xzj9Hof4p+vBZ9z/6cbB4rX/FtrTTmREQBrNRTS6OKAJMLvyNP6rG4cGJhUnIqBsI1MiLM2Aco11QC32MJ/1Pa5ytU+B4QmlACMDfiCbObd8OTExYBOeloOyKgOEWUkgAeP/K9rJgOAGlkW72itMwGuaf03d8KC6osV7iRVmQLg3yDmG42NyQ35CyJlKroUbmz56rkDPm4NrFtVcaWblHwZgLVtjzu1RJ2Kipo8gV7hCUYAcoUCudK6o/3ehl3HodAsPbgl6Pn/0IAFXOL3hlfkWfZvllD6zjjXOGAEQELN8HBF82w9BTTkv47Aacs0Ddpkm3zI97nzqcubLoTonQq5FYqwvcFH47YAZEWj9wIYaym3Vyw1akdNaC6AWbbjxlx3sLHGWbUnVC9on6RGLVHIaEvrwXsYJXVd+s61vOn2OIlQOhSFlq1vWUcdEBMA+qzHf93YMYAq2o8EEGAKgPpYxoHVXT38ytmZr7TebH82cUHVGVHIJIFOAbwJojIZJuSNX1C1BWJWiOpoBaDi/c+YhyIV4uJMqF4OwciKiurLAKS3iUHvAHhURbcK5EewjK8XNb/pyeIatqg2B9BT/LMNe03YUy/PlqiENP5zeBEMscTfN+KtphfQ+XDPm3Ga4Y/mhGo7f9c95L+OgHEP5cEYY8nMjhxswErt5cSapyj0ZgATFBK3ZTIWCk4AskubblZgjuXTvOM6Tr7jxp7wazWC6r+lr9ef2BbyMSoDYcmGYp6zw+/vKc/qaG30/qDAWdYyDqjJGwd5auuqGacFCL3wU6h1qd+/8CbIBIBO1i+ASdkU02ZF++VSzxp3X+Xpa+7M+bDwoX39tRkjVGRZlxb58bFidvYeAA8BeGjkLyoy0tLkKlWdIpCrFTpCj0a78cbFNj1au48CeEkg5fC8jW6SV75hRr+9U0vU2VdZ82uIZXId6C823NZnZU+WlxP2hqqlShnUFC4ieeofnCMv3tJrb9B7jlmrocq99YO61XpQpAZouMiSGCQ8BbB9Mh/s2jPNvwOaMThL7UnJ7NOWN34RQAaiTRcqkITEV244UJ2f8oFtY79VzZd4ikWWzbXGuJNrxoYq+5RGfy7GJwEA0kw09i0ARf7X2Uu3fQeckJsHtPbIVzUpG2NXqjrfVXgTgHifsFsjSJph4N9q8LwOgYf/gmK69agGf+JdkAkAnaRWzM6oKCiu2okOQ4SMIyMBlCAavhaAA9WlPfm+G7/Xrw7AYgCLxxRpKJQdGa+Qh4Ejq929BOCvAnmuV/jQC8tmnNZurv+JCzR5f0XNEyK43lKb+vGG27KKerzBRCTPumq6hIKCsf9CPAmMhd+/9+AgA0n2b8AJ3n/wRU25McuiRQmPAChSAxyyDEG09yHwVJICns44AEZ18zK8Zhu62L9MB7hedAn8O/25UPlKZFzyawBwoDC8uk9ZdDOAy30+2KwBK/Wejyd0Hh+vMI2wfQlUnkh9NnanCmLY4F0AMTnW13Y+rrVVQ4A8y1GSoNiLLXoAQBWAarT0NTkNHjLjvOGT+KJs512QCQCdzBTlkPYJgLTMB1AClcmAeiYp+tTxevvWfgMrxy2sfhjQIgFWZvXPvMY2NG7MA/vT603N30Ux3jcmCuZu+M/MBcenqDRP/Ctybjg1zXcs9qDfVGQAONtyY4/f/G9//g8xwUE8Ci/PFoM9JDYF8LkXN53jKtL9ExB7rVWBD4/PcoyW93xBw25V9M8Qn9EgLQU5u7og/HT7P8k9KvpXn1dnHQp5Xwdwv09Lz66AkO5A5PJutS4ptrn+hSy6xT4NdKs+rf8S1QDBf/Hmd3LjKACCAr4rA05a9FGaQgsAbC697ZT9x/s8pHVolSd6ly34j7+/NlslvNoS/GMK3PrcjOMT/FtrvLam2J2bLE3haaHkIbA0/yaYAFhv/qFYvFp8wOx9CT4CiHpewAgAexIhRncg0epvZ2+I4hVLq4dvx8V+VdH5AK607POb6vykBzv+vSbfeVIsE+Go6J2tUxm3/1yusxadh88m9lMTPGHZ1tycgh3+iQ3OAZDRg19jF8DNGC47ePdjAkAnOcfzmxBIL25sTP53AGmK+L3/j9XUIk0CcBWgO9fOzPa9wY97qPL0GGLrAb3MJ9w0iuLG527LfPS4nWSRGlFcZNlqD4QBy+FKAuPwxb4GQPWrN6ftidt6YInrDnolNP970BTGLhzr+e+ZlPYhFKVdLOXnoZi2b2vSEM9Spo7p3AEw+5nmWxS43ZKlrK+pCVu2iUL0/1rO5Zx0uDd1/GNdvlRBtbiLn2u/Qm8yxvy3JTV4E5dK1PfzxuLW/ruSwX4EYAqGy5O88xETAMLKO7JeBxDpWEEEML+1JrT0eJ9DJCdyJYA+IvJ3v+2jF9ac46l5VsQ3AB8UweT1t2ce1/McdvaBcxT+TeEImAxH7fMGaJITfxieqnXhmASa8K3BO/7ogaMtM7Zj1H/wSvA6Aq7R/0DLiI2gN/gAgvs8lby91yRftu/a5MUoEk/Efw0BeCntEoCsp5svF8GvLEd/J+qEb0TAZ63pHX4U0N2WFp/vt0zD3OGDZ4Tu1pYOrfFaOPYpcHdTzAxsHhX6mz3JsieCbiNKDVAogvsAbIWgqRtf311Q/AhhDMZweYp3PTp8k6eTnYiiuGozgKt9bv5vr56dc9znCleVSQLAUyzpuG3s/VWDPfFKob4ToUSMetesuy37uE9mktqASFOKFrSpXR+uo8FVsZeRkYfhyZK23dakJbGKbbk5uzZu2Yh+xyiM1yl1d3YH7Xf2I5oCNAy0XPOEO3/FHJ0jMed7rUnHEWHHi6JIvKB9P5qUunvASh0abm76BoDRaJnOOALgI4huNzFZt2dKiu9cDZ6R/xV4v2pbZvDU23d1++F5IYNDrsq1R6vMbV4v0TfqxiZVBn7ASyXqljVNdCCnSZtqkQtt+cArTBLQIeheKtEG4Pb055oe8GKhG1umeZa+UDSo6D4odouY0kOj8ALkaBk1Kj5OUa8ACCHWZsJtR+U96/mNlcYYsAot/4AXNIwo8mAwCIJzoRgIQSYU6VB4AGoBNADYA8E2uNiGK2Qbb3TU+f5OBCC/uPJ/BPIzn1rm31bNzb7xeL//+Psj76qiV/aAzFPbPv8fuzAyEoLlKkfnwW+pjwkAfCCOW7huRs6bvIKdXfBEwxVqdCOkfTVVBYDqd3dOS7+HpUR08uIjAGqtNGm5JUWcULig6qbWZ/THJ/jPjwyF4mwDXd42+I9bGJkIQSl8F8HRt1xHRzH4B7QcOJ59YSVj1rOEiE5ufARALcGi2d2KJBMFOk2/2ksVi2syI7UFxVXPKGRJctiseOr2vtU99t7iTRIYQMySNi0CX/aA38NvBTPBS1GEJ5bPyNjPKxdYsF/23yB1p2envriTJUTEFgCi0u+cUg9gecBLegOYJtDHmqPu/oLiqrLCBZWzr5pXffYxfwmNTALQkBo+tKq15v+fCjzmF/wVWB82GFd+G4N/kAtKDl0JwLK0rZatGysxlhLRyY19AOiIq+ZVn+0adysg/bq46ysAlgq8JaWzc16yzdLmZ8K8ilNjjtkDyLLVs7OuG78g8t8q+F/f59aC5U2N9dM23fm5Q7xaduc+rcmhgw0vqmLw4V9527L0YMbsmpb6LEuKiAkA0RH582pyxbgLAExE91qI9gh0mYr8vW8ka13rksNWBcVV3/QEvxbgP9SYQap6l1/QUsFjdaHMr784w3+sNB0uKJULShoeAXCrtvmVtynLF3dM63UpC4qImACQrzEP7D8lFHUmQXSyQMbDsv55HLUAAvsNjF9QuRSQSSpSIUA/v6ClivvHVGXOKYoz5IyAC/5UPwOC/we0CfpHyzJmRK58c2paOUuKiJgAUFyF9+zrpUmhQqhMhug13XhEAAAxAM+K6FLjOkufuSPzvcKFNed46r6uQMrhpWY7By39ydqZ2T/iVUjMuU9rcqiu4Y8AbupYlqL44Vtf6vVTlhIRMQGgLptaok713uoRUJ0sginosIpgolSwA8CpADLaLPvbNgFQT+WOdbMyi1nqXTNmrYb27W94WIFb2yQAS3Yg7UZY1lggIiYARF3S2mdgkgDXKjAGCQ4tbTu5qk8C4Krof6ydmf1blnA3qcqgkkO/BPTbIngqlp52466rpYkFQ0RMAKjHjb+/NltizdeIkWtVcZUErGAWkAA0KfSra2dl/5UleuzOL2n4UkZ16t/YeZKImADQJ2LMI++mhOoyRoknkyC4CWg/j78lATgI0RtWz8xexRIkImICQP/kiorUbOgTGW5Ep0BkMoALfRKAjwzMlFWz+r7AEiMiYgJAn0EFxfvPUzhTAL0EIiEINsdi5pF1d2TWsHSIiIiIiIiIiIiIiIiIiIiIiIiIiIiIiIiIiIiIiIiIiIiIiIiIiIiIiIiIiIiIiIiIiIiIiIiIiIiIiIiIiIiIiIiIiIiIiIiIiIiIiIiIiIiIiIiIiIiIiIiIiIiIiIiIiIiIiIiIiIiIiIiIiIiIiIiIiIiIiIiIiIiIiIiIiIiIiIiIiIiIiIiIiIiIiIiIiIiIiIiIiIiIiIiIiIiIiIiIiIiIiIiIiIiIiIiIiIiIiIiIiIiIiIiIiIiIiIiIiIiIiIiIiIiIiIiIiIiIiIiIiIiIiIiIiIiIiIiIiIiIiIiIiIiIiIiIiIiIiIiIiIiIiIiIiIiIiIiIiIiIiIiIiE5w/x+rf61MGeW0MQAAACV0RVh0ZGF0ZTpjcmVhdGUAMjAyNC0wNy0yNFQwNjozMToyMCswMDowMI7ud2YAAAAldEVYdGRhdGU6bW9kaWZ5ADIwMjQtMDctMjRUMDY6MzE6MjArMDA6MDD/s8/aAAAAAElFTkSuQmCC;" parent="1" vertex="1">
          <mxGeometry x="662" y="110" width="140" height="60" as="geometry" />
        </mxCell>
        <mxCell id="ItV2FaSNyb-uXS4h-aJt-21" value="" style="group" vertex="1" connectable="0" parent="1">
          <mxGeometry x="860" y="80" width="280" height="438.5" as="geometry" />
        </mxCell>
        <mxCell id="ItV2FaSNyb-uXS4h-aJt-15" value="DB" style="sketch=0;points=[[0,0,0],[0.25,0,0],[0.5,0,0],[0.75,0,0],[1,0,0],[1,0.25,0],[1,0.5,0],[1,0.75,0],[1,1,0],[0.75,1,0],[0.5,1,0],[0.25,1,0],[0,1,0],[0,0.75,0],[0,0.5,0],[0,0.25,0]];rounded=1;absoluteArcSize=1;arcSize=2;html=1;strokeColor=none;gradientColor=none;shadow=0;dashed=0;fontSize=12;fontColor=#9E9E9E;align=left;verticalAlign=top;spacing=10;spacingTop=-4;whiteSpace=wrap;fillColor=#EFEBE9;fontFamily=Helvetica;labelBackgroundColor=default;" vertex="1" parent="ItV2FaSNyb-uXS4h-aJt-21">
          <mxGeometry width="280" height="330" as="geometry" />
        </mxCell>
        <mxCell id="SU1acnZ5uy_IHtQN52sj-9" value="" style="strokeColor=#dddddd;shadow=1;strokeWidth=1;rounded=1;absoluteArcSize=1;arcSize=2;" parent="ItV2FaSNyb-uXS4h-aJt-21" vertex="1">
          <mxGeometry x="33.25" y="100" width="217.5" height="61" as="geometry" />
        </mxCell>
        <mxCell id="SU1acnZ5uy_IHtQN52sj-10" value="&lt;font color=&quot;#000000&quot;&gt;Server-Environment-API&lt;/font&gt;" style="editableCssRules=.*;html=1;fontColor=#999999;shape=image;verticalLabelPosition=middle;verticalAlign=middle;labelPosition=right;align=left;spacingLeft=20;part=1;points=[];imageAspect=0;image=data:image/svg+xml,PHN2ZyB4bWxucz0iaHR0cDovL3d3dy53My5vcmcvMjAwMC9zdmciIHhtbG5zOnY9Imh0dHBzOi8vdmVjdGEuaW8vbmFubyIgd2lkdGg9IjIwIiBoZWlnaHQ9IjExLjI1OTk5OTI3NTIwNzUyIiBmaWxsLXJ1bGU9ImV2ZW5vZGQiIHZpZXdCb3g9IjAgMCAyMCAxMS4yNTk5OTkyNzUyMDc1MiI+JiN4YTsJPHN0eWxlIHR5cGU9InRleHQvY3NzIj4mI3hhOwkuc3Qwe2ZpbGw6IzQyODVmNDt9JiN4YTsJLnN0MXtmaWxsOiM2NjlkZjY7fSYjeGE7CS5zdDJ7ZmlsbDojYWVjYmZhO30mI3hhOwk8L3N0eWxlPiYjeGE7CTxwYXRoIGNsYXNzPSJzdDEiIGQ9Ik00LjY4IDEuNDJIMi40MkwwIDUuNjdsMi40MiA0LjI2aDIuMjZMMi4yNyA1LjY3eiIvPiYjeGE7CTxwYXRoIGNsYXNzPSJzdDAiIGQ9Ik0wIDUuNjdsMS4xMSAxLjk3IDEuNDYtMS40NS0uMy0uNTJ6Ii8+JiN4YTsJPHBhdGggY2xhc3M9InN0MiIgZD0iTTEzIDBINy4xMkwzLjgxIDUuNjNsMy4zMSA1LjU5SDEzbDMuMjktNS41OXptLTIuOTMgOC4zNmEyLjY0IDIuNjQgMCAxIDEgMi42Ni0yLjY0IDIuNjUgMi42NSAwIDAgMS0yLjY2IDIuNjR6TTIuNDIgMS40MkwwIDUuNjlsMS4xMSAxLjk3IDEuMTYtMS45NyAyLjQxLTQuMjd6Ii8+JiN4YTsJPHBhdGggY2xhc3M9InN0MSIgZD0iTTEzIC4wOGgwbC0xLjcgMy4zM2EyLjY2IDIuNjYgMCAwIDEtMS4yNSA1IDIuNjIgMi42MiAwIDAgMS0xLjE4LS4yN2wtMS43NSAzLjEySDEzbDMuMjktNS42M3ptMi4zMiA5Ljg1aDIuMjdMMjAgNS42N2wtMi40MS00LjI1aC0yLjI3bDIuNDEgNC4yNXoiPiYjeGE7CTxwYXRoIGNsYXNzPSJzdDAiIGQ9Ik0yMCA1LjY3TDE4Ljg5IDMuN2wtMS40NiAxLjQ2LjMuNTF6Ii8+JiN4YTsJPHBhdGggY2xhc3M9InN0MiIgZD0iTTE3LjU5IDkuOTNMMjAgNS42NWwtMS4xMS0xLjk3LTEuMTYgMS45Ny0yLjQxIDQuMjh6Ii8+JiN4YTs8L3BhdGg+PC9zdmc+;" parent="SU1acnZ5uy_IHtQN52sj-9" vertex="1">
          <mxGeometry width="30" height="16" relative="1" as="geometry">
            <mxPoint x="15" y="22" as="offset" />
          </mxGeometry>
        </mxCell>
        <mxCell id="SU1acnZ5uy_IHtQN52sj-16" value="" style="strokeColor=#dddddd;shadow=1;strokeWidth=1;rounded=1;absoluteArcSize=1;arcSize=2;" parent="ItV2FaSNyb-uXS4h-aJt-21" vertex="1">
          <mxGeometry x="33.25" width="61.75" height="50" as="geometry" />
        </mxCell>
        <mxCell id="SU1acnZ5uy_IHtQN52sj-17" value="" style="editableCssRules=.*;html=1;fontColor=#999999;shape=image;verticalLabelPosition=middle;verticalAlign=middle;labelPosition=right;align=left;spacingLeft=20;part=1;points=[];imageAspect=0;image=data:image/png,iVBORw0KGgoAAAANSUhEUgAAAgAAAAIACAYAAAD0eNT6AAAABHNCSVQICAgIfAhkiAAAAAlwSFlzAAAOxAAADsQBlSsOGwAAABl0RVh0U29mdHdhcmUAd3d3Lmlua3NjYXBlLm9yZ5vuPBoAACAASURBVHic7N15YFxV2cfx77mTdEtpyyYoKCiKyqKAgGzihmDFFWhxQREQytY2M8lMCr7IVZC2mWRm2gJSFAUUkdbtFZVFVBCKyP6igBtYQJBFhJQmtE3mnvePoLK0TTL3nLmz/D7/KG3u73nENvPk3HvPAREREREREREREREREREREWkEpipV0oXNCFq2xpRfBbQMV47GYYN1BPZZDM+z1jxKKf1sVfoRERFpcu4HgFzxrVgOAvbAsCuWnYCJo7x6AHgEw1+x3A/8CWPvZtKqewjDdc57FRERaVJuBoBscQ+MPRprDgO2dZL5UuuAezDcRMR1TB53A+Epqz3UERERaQqVDwBhGLB6yhEYcxqwm7uWRmUQuAXMdQTmOiY+cythOFTlHkREROpWZQNAtnAwmB5gV7ftVOwZrPkxJlpGX9svuXDWYNINiYiI1LKxDQBdC6YSje8Gjh/ztdXzDJafgl3OqrarNQyIiIi80ug/xLt6304U/AR4nb92nHsC+Dbl6OsUOv6cdDMiIiK1YnQDQK70USJ7GYbJnvvxxYK5HhtdyORVP9QbBSIi0uxGHgByxcOwXMG/39+vf09h7cW0mAtYkH4w6WZERESSsPEBoLN4EIafAuOr005VRWB/jjXn0JP+bdLNiIiIVNOGB4DhDX1uA9qq105ibgDTQ37uz8DYpJsRERHxbf0DQLh0Ev0DvwN2qW47SbP3QbCQtme/q30FRESkkQXr/dX+gSJN9+EPYHYCewn9U+8jW/ocM5alku5IRETEh1euAHSU9iKwt7Ch4aCp2L9hzAIm9X1TKwIiItJIXvohP2NZipT92it+vWmZ12NZysDUe+kszARbq5sfiYiIjMlLP9ByhWOw5psJ9VIPbgWbI5+5IelGRERE4njRAGAN2dK9wFsT66Z+XEcQdbKw4/+SbkRERKQS/x0AcsWPY/lRgr3UmzLwDVpav8j8U59OuhkREZGx+O9T7vt98Bv42+d/HYYnGT7Gt5XGeMYgAPYkio5jv+l9HLzPXVx/vfYQEBGRujC8AjC86c99jrOfwrKIlP0xE1fdTxhG//md4X0GdsTYt4N5G9bsB3YvXjyQ1J/bseZUetp/l3QjIiIiIxkeALKl+WDnOcr8PZhl2MEL6ck+Oeqr2ovTGMd7sEwHPgFs6aifaoqAi2lJzWP+nKeSbkZERGRDXhgACvcOb4ITy7NYM5ue9u/E7mrGshSv/8d7sNGngSOpv+2InwHOYOU2F7B8ZjnpZkRERF7O0LXodUTRQzFzymA/RD5zrZOuXqxrwVTshM9i7YnAzs7z/boba46mp/2epBsRERF5MUO2+CnguzFzriCf/qSLhjYqW3gXmJOAw4Fx3uu5sRZsF/nMoqQbERER+bcAw57xY6JL42eMQj5zI/n0p2FwOzBnAH+vSt14xoMpkS1dRrowMelmREREAAKsfUvMjHtpe+5qJ92MVj73OPn2s2nrez2Gw4FfATX+Cp79NC3mN2S7t066ExERERP7AUBjj6U78y2HPVUmV3wrkT0ZYz4HTEm6nY1YieFDdKfvT7oRERFpXgGYreIlmNrYF787fT89mdmYddtizGywf0u6pQ3YHssKsoV3J92IiIg0L0O2uI7h3fkq8Tz59CSXDTkThi2snnIEQZDD2t2Tbmc91mLtsfRk4j6AKSIiMmaGbDHOvfNnyac3ddaNL7nSB7A2BxyUdCsvY7EsYHLf/7xkp0QRERHPAmAoxvXjwJqRvyxh3e2/IJ/+APAO4AqGD/KpBQbDafRP+V9mL67l5xZERKTBGLLFp4HNKk5oNVtzTvsT7lqqgnnFN1DmNOBoKr/94dr9EHyM/Ny/JN2IiIg0vgB4OFbCkNnFTStVtCD9IPn08ZB6K3AptbEi8FaIbiNb/HzSjYiISOMLgHjbAEfRAW5aSUB+zgPk00cTlXcBlpP8XgJTgW+RK/6UXOnNCfciIiINzJAtLgZmx8j4Lfn0fq4aSlSudx9s0APsn3QrDD+bcSnG3oQNVmPtMwTRaox5jqFoNa2TVjHhyT49PCgiIpUw5EqnYu2SGBkRQ/Z1FDOPOusqabniYVgWAG9KupVRGABWA89heBbLc2BXg3kOeA7LM8BzYJ4jiIb/M+JZArtq+GtSz2EGnmPhvL5k/2eIiEg1GTK9u5MK7owXY79IPnOOm5ZqxAlLW5nafzLWnI1hctLtVMGTYG/FBDdhzAoGzG0smbM26aZERMQPw4xlKbZ/9J/AtBg5D7NymzewfGYtPEznVrqwDSkzH8Nnk26lygaAu7DcBHYFZVZQzPwr6aZERMSN4Xf4c8WfY5keK8naj9KTudJFUzWpozidgAuA1yXdSkLKwO+x9iZgBUHrb+ie/VjSTYmISGVeGAAKHVjTEzPrBvLp98TuqJblFm6CHTcfOInhNyia3V+AG7DmBoLgerrn1MPxzCIiwr8HgEzva0kFK4n7oWb5AD3p6+K3VeO6Fh2AjS7CsmPSrdSYB4DrMFzLOn5FKf1s0g2JiMj6/Xcb31zxBiwHxoy7hXz7vjF7qg/heZMZWHcRlplJt1KjhrD2VjDXgrmayc/eplcWRURqx4sGgMKJWPM1B5EfId/+0/g5dSJbzAHz0S2BEZjHMdGVWPtj2p77FWG4JumORESa2X8HgHRhM1rMI0Dc433vpW/S7lw4azBmTv3IlmYAl4KdkHQrdcGyGrga7HImr/qJhgERkep76Ul+2eL5DD/gFjPV5Ohuz8fOqSfDuwheCWyRdCt1pg/LT4BL6Wn/JZikt2MWEWkKLx0AMr07kgruJ/7DgKuJop0odDwSK6fedCzeiaB8Fc37qmBcD4G9BNO6VK8Yioj49dIP+kLHn4H47/IbJpNKLYqdU29659zHkN0PuCfpVurUdmC+hB1aSa50ObnefZJuSESkUZlX/Epn6Z0Y+9v1/t5YWfsZejLfjZ1Tb7oWTCUavww4OOlWGsBtWFvioW2vaMidJkVEErL+D/nO4g8wHOYgv48geBsL5z7sIKu+zFiWYrtHv4qhK+lWGoP5IzCftme/o9cJRUTiW/+9flv+IsPH0cY1lSi6CGz81YR6s3xmmZ70PDAzAe2hH5t9C9hLGJh2O53FQ5PuRkSk3m34gzlb/DrwBUd1suTTcbcarl+5xdtC+QIs+uByZwXlaDaFjruSbkREpB5teAA4vbQVg/aPxDsl8N8GgfeST69wkFW/cqUPYO0CYI+kW2kQZeACUuPPYMHJzyTdjIhIPdn40ny2eApwrqNaf6cltQfz5zzlKK9+dZT2wvB5jN3wWQLWTsKYnXAzgDW6J4Eu8u2XaB8BEZHR2fgAMGNZiu0fvQXY01G9X7Bym+l6mnsMcou3xQ7tBLwVzLbAq4FtwWwFdnMwm2gHwhdYezPGnEI+fXfSrYiI1LqRH87LFfbEmluAlKOaPeTTWUdZAnDC0lY2K0+GtZtio02gZROGok0IzGSM3RTsJkRmMobJWLbE2C0xZissWwFbAa1J/09wqIy1X2PInKHTCEVENmx0T+d3Fs/BcJrDup8mn77cYZ5UKgxb6N/09dhox+FbEmYX4F3Am5JuLaYnMLaL7vSlui0gIvJKoxsAZi8ez4TybcCujuoOUI4O0BPcNay9+GpazYFgDwIOAzZLuqUKrSCITmFhx/8l3YiISC0Z/fv52eJuwK24Wy5+mJbUnnoosA7MWJbiDf/Ylyj6LHAkMDXplsZoCGPPZ9L4LxKesjrpZkREasHYNujJlbpeeI3NVflf0/bswYShi02HpBrCcAKrp0zHmCOBjxD/+OhqepDAnMzC9muSbkREJGljGwDCMKB/2s/AftBhD4vIp9sd5km1dC2Yih33Kaw5Ftgr6XbG4DJaUmmtPolIMxv7Fr2nLd6SofJdwDbuurCfpztzibM8qb5c8a1EHI3hWGDLpNsZhWcwzKO7/et6SFBEmlFle/R3lA4ksL8EWhz1MYA1+9LTrmN0693sxeMZP/QJAnMSlgOTbmcUfgXBieTn/iXpRkREqqnyQ3o6i1/EcLazTix/ZYi99O52Axl+cHQ2mE/X9mZFZg1EZ9HXlufCWYNJdyMiUg3rPw1wNCb3zQd+4awTwxtp4SJneZK8fPpu8unjiIZei+F04O9Jt7R+dgKYrzJ14A5yhb2T7kZEpBriHdM7fGDQHbh8HgBOJZ8+z2Ge1IowbGH1lCMwpgvYLel2NmAITA9rgpAlc9Ym3YyIiC/xBgCAXO8+2OB6YHzsrGFrKUf7apOgBte16ACicheYDyfdyvrZ+zAcQ3fm1qQ7ERHxIf4AAJArnIg1X3OSNexP2KF30JPtd5gptaizuC+GeQzvKeDmz6M7Q1jyrE19WasBItJo3H3DzRYvAo51lgffIJ8+3mGe1LKuws5E5kzgcOI8m+LHvUTmGHrbb0u6ERERV9wNAMPnBdyI0w1hzCfJt1/hLk9q3n8HgSOorRWBISy9rE2dqdUAEWkEbr/BZnpfSyq4HXiVo8Rnicq70dv5kKM8qRedi3bBRF+i9gYBrQaISENw/401t+j92OgaIOUo8QZWbvN+ls8sO8qTetJR2osgmg/m/Um38iJDYM+hbdVZOsdCROqVqw/p/1px9d/Y74MGw3scJW7PtFVrufmaGx3lST357dWPcfM1l7LfB1dgeBuwddItAQGYdzM44YPs/6EbuPnqfyXdkIjIWPl52Gpy31m43CQIE9JZeqe7PKk7PenraOt7B3AM8EjS7bxgb4juIFc4JulGRETGyt+9VdeHBln+yuRxu+s8dyFdmEgLc8GcBkxJuh0ALN+nbGdRzGg1QETqgr/XrebPeQoTHQG42Vvd8Eb61xWdZEl9K2aeJ59ZQEvrGzB2MZD88yGGI2gJ7qWjOD3pVkRERsP/09W5UhfWLnAXaGaSb1/uLk/qXra4B5ZFGA5IuhXAYuwSnm/J6XVBEallVXi9yhqypR8BH3MU+E8GeRul9D8c5Umj6Cx8BGOWANsl3QrwB6z5jI64FpFaVYUd14xlyB4LuHqXfwta+BbYWno3XGpBT+ZK7NDOQA+ubj1VbheMvYXO0nEJ9yEisl7V+xDNFfbGmhuBcU7yrJlLT/tiJ1nSeDK9O5Iy59fG/gH2O7SNP0kPsIpILanuT9HZwlwwJTdhZg3R0O70dv7RTZ40HmvIFT+PNd3AFgk3cz+BncHCzL0J9yEiAlT70JV8ejGWH7oJsxMwqa8ThrV2cIzUDGPpznyLIftm4JuATbCZtxKZ35ErHJ1gDyIi/1HlD09jSa09FnjQTRwH0D/1JCdZ0riKmX+RTx+HMYcAKxPspA1rLqaz9E3CpZMS7ENEJKFDVnKFPbHmJmC8g7R+bMuu9Mz+m4MsaXTh0kmsHvgShiyJHjts/og1M+iZ+4fkehCRZpbMN8DuzO1Yk3OU1kYwdJ6jLGl04awBetLzgAOBPyXXiH0LJrpVbwmISFISfJXOGjpL38dwmJM4w1F0py9zkiXNIVw6iYGBs7DMxcfBWKNlzfmsmtjOhbOSfnVRRJpIsu/Stxen0WrvBPN6B2lPY4d2oif7pIMsaSa53n2w5iIwOyXYxQoYPIJ87vEEexCRJpL8Zjodpb0I7E242B/Amm/R035s/KbqhTXM+9o01q6ZxHgznojxDNpVFDOPJt1Z3QnDCfRPOwdsO8n9vXgEYw+jO3N7QvVFpIkkPwAAdBbbMbg46CciCvamd+4dDrJqQxi20D91F6zdCRPsDLwV7DYMn7K4FdDysiuew9rP0JO5suq9NoJc6QNYezHwmmQaMGsw9gS6099Opr6INIvaGACwhmzxp2A+FD/K3kxP+gAwSb7zHd/wIUrTgT2BtjFeHYH9Ivn0wrr/95CE9uI0Wjkf+FSCXVxI36RT9VyAiPhSIwMAkFvyGuzQPcDm8cPMEeTbfxA/J0Gdxfdh+DGwSeUh9peU7TEUOh5x1lcz6SwdB7aEYXJCHfyKqHwkvZ3/TKi+iDSw2tlFr3v2Y2BmuQmzX677HQJ70r+CuMcom/eTCu4hWzrSTVNNpqf9Ilrs7sDvEurgfQSp28gWd0uovog0sNr6kBz+qf1yB0k70z9thoOcZLWtKoCJe9bBNLDfI1dYxAlLW5301UwWZP5KW98BYL8ClBPoYHtgBdnS4QnUFpEGVju3AP7ttHM3Z2jwPuBV8YLsfbSt2pUwjJz0lZThXRNvBlx8eK8gNf4jLDj5GQdZzaejdCCBvZxkHhC0GL5CdzpMoLaINKDaWgEAmH/q00B7/CCzEwNTPxo/J2HdmduxzHOUtj/ltVeTLkx0lNdcett/Q6vZA/hVAtUNljPJFi8gDF/+5oeIyJjV3gAAkE9fDvbnsXMssx10k7yedAHLJY7S9qbF9DrKaj7ntD/Bym0OxnAWkMTq0ixWT/0psxdPSaC2iDSQ2hwAAFLMBdbGTHkfnaW3uWgncZP7TsDwG0dpJ5ItvNtRVvNZPrNMd/pLmOggMNXfuc9wCBPKK+jo2a7qtUWkYdTuALAg81dgUewcY0+O30wNCMN12MEjgYcdpBmsWVT3b0okrbvj1wxFe2K5KYHqu5BK/ZZcYc8EaotIA6jtDwCz7mwM/4iZ8lnmnb+pk36Sls89TpSaDvwrdpbh7QxM/Xj8pppcMfMok/veC/QA1d10yfJqrLmezsJHqlpXRBpCbQ8A3V3PYZkfM2US5bWNc+Rq75z7wH4czBoHaaeDrb03QepNGA6RT2fBzMCyusrV2zDmR2SLjfG8i4hUTW0PAABrUhcCf4+ZciozliV33Ktr+cyNGI4k7nvplneQW6SfHl3Jt/+AlN0PeLDKlVPAYjqLMTeOEpFmUvsfirdeVeaAQ9aCOTRGyjQ2XX0HK67+k7O+krbi6j+x/yHrwBwUL8i+nYP3/SbXXz/kprEmt+KaJ3n3Ry4jivYEXBxzPXqGA9h/+tYcvM9VXH+9zoAQkY2q/RUAgEmrvgn0xcqw9hg3zdSQfHohcEW8ELMTA1Pj3maRF5t/6tO09R2CsYurX9yeyMDUywnD+Mdri0hDq48BIAzXYPlxzJRDOW3xlk76qRnGYoeOA34fK6ZR9kuoJWE4RHdmLoajgOerWtsyk/6pV5FbGOMgKRFpdPUxAAAY+72YCa0MDX3aSS+1pCfbD6lPEOdDxlb5A6qZdKcvAw4Aqn0i4/uw435JR88WVa4rInWifgaAtlXXAU/FCzGfd9FKzcnPeQBrL6r4esOAw27k5fLpOzEt+2C4o8qV9yJIXU+6sE2V64pIHaifASAMh4AfxkzZja7et7top+akUnlgXWUXm/j7CsjGdc9+jGjo3cCVVa68My3mJrKL3lTluiJS4+pnAACw9pr4GcHn4zdSgxbOfRj4ToVXr3TYiWxIT7afldt8AjivypW3h+hGugq7VrmuiNSw+hoAhsyvgXivq1k+zQlLXRytW4OCBVS0N4B9yHkrsn7LZ5bJp08F2051DxPaisjcQMeid1SxpojUsPoaAErpZ8HcHjPlVUwZONhJP7UmP/cvwLIxX2fNXe6bkY3KZxaBmUl13xDYlCC6mmxxtyrWFJEaVV8DAADRdbEjDDMdNFKbotTZjPknS7PCSy+ycfn2H2DNe4Enq1h1C+DXdJT2qmJNEalB9TcARMEvHKR8jNmLxzvIqT29c+5jbA+aPcXkZ+7z1Y6MoKf9d5DaD8Ofq1h1GoG9RrcDRJpb/Q0Amzx7C9AfM2UqE6NDXLRTkyLz1VF/rTXLCcNq3ouWl8vPeYBU637AbVWsuilBdJ1WAkSaV/0NAGG4DsyNsXOsbdzbAL3ttwHXjuprU+Yyv83IqMw/9Wns0HsZ7f9vbkwjsL8g17tPFWuKSI2ovwEAAPtLByEfJV2Y6CCnNo3mGGXLTSyce3MVupHR6Mn209b3ESzfr2LVqdjgGjqL+1axpojUgPocAILIxXMAm9BqpjvIqU096euBjT3cZzH29Cp1I6MVhuuY3PcpLJdUseoUDFeTK+xdxZoikrD6HAAWZu7BxeY1toHfBgAgOmcjv3kB+Uz8WyniXhgO0dN+DIZSFatOwZqf07lolyrWFJEE1ecAgLFYuzx2jOVQwnCCg4ZqUz5zFWa97/j/ATuUrXo/MgbG0p1OY8y8KhbdHBP9klzpzVWsKSIJqdMBALBB/AHAMJn+aQc56KZGGbueZwEeIQgOHT5FUGped/tC4GSqt2vgq7D2WroWva5K9UQkIfU7AAw/6f5g/CD7ifgZNazt2R+A+SMAlv8jKr/rhXMDpF7k018DjqKibZ4r8jps9AtOL21VpXoikoD6HQAArP2Bg5SPEoYtDnJqUxhGmGgBcCUM7U9vp/b9r0f59OUYexzVGgIsOzJkf8bsxVOqUk9Eqq6+B4DIXu4gZQsGNnmXg5zaNWnVZbT1HaFl/zrXnbkEa48i7oFYo2V5BxPKV9OZb6tKPRGpKpN0A7Fli38Ado6ZsoR8eo6LdkS8y5aOBPsdoForV79gTeojLJmztkr1RKQK6nsFAMDiYhXgE2DrfxiS5pBvvwJrj6Z6zwR8gAnlSwjD+v9+ISL/Uf9/oVu4HLAxU7YlV9Se6FI/ejLfrertADiSgan5KtUSkSqo/wFgQfpB4JbYOZE5LH4zIlXUk/kehk8Bg1WpZ8nQWdKtMpEGUf8DAIAx342fgQYAqT/d6e8DR1OtfQKMLZArfrwqtUTEq8YYAFLBFcRfCn2TtkGVupRPXw4cR/xbYaORwvJdHR4kUv8aYwCYP+cpMNfFzjFWqwBSn/Lpi7GmvUrVJmL4CdlFb6pSPRHxoDEGAACLg3PtG3xXQGlsPe2LwX6lStW2gOgqOvOvqlI9EXGscQYABn8ExN3oZjeyi3dw0Y1IIvKZM4GeKlXbAdNyJeHSSVWqJyIONc4A0JPtx5gr4weVtQog9S3fnsPYr1ep2t70D1zOjGWpKtUTEUcaZwAAN7cBrG4DSL0zlr9texIQ/8TM0fko2z361SrVEhFHGmsA6Jt4DfB0rAxj9iG35DVuGhJJyPKZZdr6jgJzdVXqGXJ0Fj5dlVoi4kRjDQAXzhoEE/enngAG9Z6z1L8wXEfbxMPBxN8oa2QGE1xErrB3FWqJiAONNQAAEMXfFMga3QaQxhDOGqAl+CiWv/ovZieA+THpwjb+a4lIXA14AI41ZEsPAtvHCBkiKr+a3s5/OmpKJFnzCm+kbG4GtqxCtd+yJvVenR4oUtsacAXAWDDfixnSQpD6sJN2RGrBgsxfMfbDwEAVqu3L+PLSKtQRkRgacAAAouDbDlJ0G0AaS3fmVqz9JNU4RthwNNnibO91RKRiDXgL4AXZ4j3ArpUHmDW0tW5JeMpqZz2J1ILO0hyMXVSFSkOY4IN0z/1lFWqJyBg15goAADbmw4B2AgPrPuamF5Ea0tO+GExvFSq1YKNlzCu8sQq1RGSMGncAiKLLiX862mdctCJSc9qezWH5YRUqbUbZ/IB0YWIVaonIGDTuANDb+RCWFbEyLB/g9NJWjjoSqR1hGFG2R2G4owrV3kYrS6pQR0TGoHEHAABD3D0BWhi0RzjpRaTWFDPPUy4fDjzhvZY1x5Etft57HREZtcYeAFpalwFx30XWbQBpXL2dDwGHE//vyWicR1chxoO5IuJSYw8A8099GuxPY6bsq4eYpKHl0yswdlYVKk0iMj9g9uIpVaglIiNo7AEAwHJJ7Iwhc6SDTkRqV3fmEgyFKlR6ExPL1TqqWEQ2ovEHgMmrrgLzeKwMw2fBNu6eCSIAf9smh+Eq73UsM8kWT/FeR0Q2qvEHgDAcAi6LmfJmssUDXbQjUrOWzyzDuiOBe6tQrUhncd8q1BGRDWj8AQAgiL7lIOSE+BkiNa676zkIPgH0ea7UiuF7nHbu5p7riMgGNMcAsDBzL3BrvBB7OB09WzjpR6SW5ef+BcMXiL+R1khex9DgN3V7TSQZzTEADIv74NF4UsHRTjoRqXXd6e9jKFah0kfJlk6sQh0ReZnmGQDs0OXAqngZ5nj9tCJNY1JfF4bf+C9kCtofQKT6mmcA6Mn24+JhwM7Su120I1LzwnCIFjMTeMxvITsBG1xCGI7zW0dEXqx5BgCAIFoaP8NUY8MUkdpwTvsTWD4DDHmtY+3u9E/9qtcaIvISzbecnS3eArwzRsIQKd7EgvRKRx2J1L5cqQtrF3iuEmGCg+me+0vPdUSEZlsBADCcFzOhhTIZJ72I1Ivuud3Ajz1XCbDRJXo1UKQ6mm8AmNR3BYZ/xEw5Tq8ESnMxlkGOAR7yXGgbBgcv9FxDRGjGASAM12HNBTFTJpFKneqkH5F6UUo/C1V4HsBwGJ2l47zWEJEmHAAAWoKvgVkTK8Mym/C8yY46EqkP+fQKLGd7r2PsInKlN3uvI9LEmnMAmD/nKbDfjZmyGQNr9UaANJ+HtjkbuNFzlTasvZQwbPFcR6RpNecAAGDNIuJudWrNaXQtmOqmIZE6sXxmmSA4CnjGc6W9GZjW4bmGSNNq3gGgp/0esHGPPt2caELOST8i9WTh3IfBHO+9jrVfpquws/c6Ik2oeQcAAGPPih9i0+QWbxs/R6TO5Nt/gLEXea4ynshcyglLWz3XEWk6zT0AdHfcAvwqZspEbPkMF+2I1J2oPBfMHz1X2YNpz2vvDRHHmnsAADCRiyeaj9UTy9KUerL9YD8DDHqtYwnJFd/qtYZIk9EA0N3xa2BFzJQWbNTjoh2RupNP34nF8z7+dgKWbzFjWcpvHZHmoQEAwJgvOwj5MNnSh+PniNShVZPOwZi7PFd5J9s/qrcCRBxpvsOANiRbuA7M+2OmPEBb3y6EYbxNhkTqUcfinQiiO8BO8FhlLYF9Bwsz93qsIdIUtALwb1FwGnH3BYAdWD0166IdkbrTO+c+rPW9S+B4InORbgWIxKcB4N9622/D8qPYOYbTmFfcPn5DInVoct9C4DbPihri6wAAIABJREFUVd7J9o+mPdcQaXgaAF4s4H+AcsyUiZQpuWhHpO6E4RBR6vPAWs+Vvkznktd7riHS0DQAvFh3+n7gEgdJHyNXPMJBjkj96Z1zH/Alz1UmEQyd57mGSEPTAPByQ/ZLQH/sHMu5nHbu5vEbEqlDK7fpBXOL1xqW6XQWZnqtIdLANAC8XDHzKAYX7/RvxdA63QqQ5rR8Zpkg+gKwzmsdEyyivTjNaw2RBqUBYH0G7ULgkfhB5ig6Cx+LnyNShxZm7gXjeYMsuzUtxvMmRCKNSQPA+hQzz2PsmU6yjDlXRwZL0xqKzsbyV681jD2RzuK+XmuINCANABsyadUlGO5wkLQt0fhLCEP9u5bmU8w8DxxP/D02NibAsFQnBoqMjT6UNiQMI6ztwM03ro8xMDV0kCNSf3rS14O9zHOVXXVioMjYaADYmHzmBmffuCxnkC12OskSqTdRlAb+6bWGtWcyr/gGrzVEGogGgJG0Bp3AM47SuukszXKUJVI/ejv/iTXzPFeZSMS5nmuINAztpz2SG6/uZ/8PrgIOdZBmMBzKftOf4earf+cgT6R+3HzV3Rxwy3uB7TxWeRP7T7+Pm6++z2MNkYagFYDRaOtbCtzqKM1g7CJyxdMc5YnUCWOBE/G9NwA2Txj6PJFQpCFoABiNMIyAk4AhZ5mWc8iW9P6yNJfu9P1glniush39U/RAoMgINACMVj59J4b5bkPt6WRLnjdKEakxa4KvAE/4LWLm0V58td8aIvVNA8BYTOr7Cs6POrUdGgKkqSyZswo43XOVTWjlbM81ROqaBoCx+M9Rp2aN22DbQWdpjttMkRrW1ncxcLvnKp+nq7Cr5xoidUsDwFj1zrkPIvc/vRhboKM43XmuSC0KwwjLHHzvEBiZMzzmi9Q1DQCVaFu1CMyvHaemCLiU0xZv6ThXpDb1pH9bhR0CD9cqgMj6aQCoRBhGtLTMAB5wnLwFg+Vex5kiNWwoC6zyWECrACIboAGgUvNPfRpjDgUec5pr+Cy53n2cZorUqnzucbALPVfRKoDIemgAiKO7/U8QvAd4yGmuTc12midSy9pWFcD+zWOFgMho4y2RlzFJN9AQcou3xQ5dA2YnR4nrYHC74Z+ORJpArvgZLN/xWGGIINiBhXMf9lhDpK5oBcCF7jl/p2XcgbjbI2ActvV4R1kitW9S3+XA3R4rtBBZvWor8iIaAFyZf+rTDNkPgnVzCInhMCc5IvUgDCMC36cF2uOZvXiK3xoi9UMDgEvFzL+wrR/GyVPN5i3MWKbTGqV5LGy/BviVxwpTmDiklTWRF2gAcK1n9t+AdPwgO4Ed/qmfVqS5GNuFz82BLKdosBYZpgHAh7a+izH8OXbO4IC+UUlz6c7cjmG5vwLm9Wz/mHbcFEEDgB/D25wujp2zyUTHZw6I1AEb/A8w6LHCKR6zReqGBgBvUlfHDOgnPGW1k1ZE6kl+7l+w5uv+CthDyPTu6C9fpD5oAPAlP+cB4OkYCW53GBSpJ2bdWUC/r3RaglmeskXqhgYAXzoLM4HNYyS4eZ1QpB7lc4+DucBbvuVownCCt3yROqABwIfOfBvG9MQLMfe6aUakTrWSBwY8pW/OwNTDPWWL1AUNAF60ZIDXxoow9g43vYjUqXPanwA8PgvACR6zRWqeBgDXwnAcxpwcO2cdv3XQjUh9i8pFYMhLtuVAOha7Or9DpO5oAHBt9ZQjwG4dM+VBSul/OOlHpJ71dj6E5cfe8lPl47xli9Q4DQDOmZMchFzjIEOkMaSCRd6yLZ9j9uLx3vJFapgGAJey3Vtj2C92jrVXOehGpDEsnHuTs0O2XmkLJpR18JY0JQ0ALpmWw4j/73Qtk8f/2kU7Ig3D8E2P4TogSJqSBgCXrPm4g5QbtQOgyMukWi4F1vkJt+8hV3qzn2yR2qUBwJXh+4gHxA+yP4+fIdJg5s95CvhfT+mGKNLDgNJ0NAC4Mi56JzAxdk6KK+M3I9KI7De8RRtzjHYGlGajAcCVgPc4SLmdBZm/OsgRaTxtq64DHvaUvgUDU2d4yhapSRoAnLH7Owi5wkGGSGMKwwjspd7yLS5e4RWpGxoAnLAG2CtuCFF5uYtuRBpX6lLAegrfl2xxD0/ZIjVHA4ALHb1vBjaNlWFZQW/nQ24aEmlQ+bl/AW72WEHHBEvT0ADgQtCyd+wMwzIHnYg0Pmsu8Zj+GdKFzTzmi9QMDQBO2H1iBgzSkvqek1ZEGt3a4Ar8HRPcRmugjYGkKWgAcMEQdwXg5y+85ywiI1kyZxWWH3jLt/ZUTlja6i1fpEZoAIgrXZiI5W2xMgwXu2lGpFmY8zyGb8uUfr0SKA1PA0BcLewJxPlp4WmeT+nwH5Gx6Gn/HXCbt/zAZLxli9QIDQDxxX3//7ssmbPWSScizeV8b8mWd9C1yMHW3iK1SwNAXMbE+yYRBT6faBZpXGtSlwNPessvR3O9ZYvUAA0AccxYlsKyb4yE39M79w5n/Yg0k+GVs4u95Rs+wbzi9t7yRRKmASCO1z+yF1D5O8PG6qd/kThSfA0oe0svm1M9ZYskTgNALMEHY1w8hB26zFkrIs1oQXol8EN/BezxzF48xV++SHI0AMRhzSExLr6afO5xd82INCkTFTymT2Fi9DmP+SKJ0QBQqXRhM7AxDgAKLnbWi0gz6+64BWv9nQ8Q2bmEob5XSsPRH+pKtZrpQKrCq//FmuCnLtsRaWom8LcKYHgjq6cc6i1fJCEaACplmV75tVbv/ou4tPI1PwYe9JZvTLu3bJGEaACoxPBy4AcqDzD+9jEXaUbLZ5axZpHHCu+jq/ftHvNFqk4DQCUGNtkbeFWFV69i1aQVLtsREYDBi4CnvcVHwRxv2SIJ0ABQCWtiLP9zLRfOGnTYjYgA9GT7sXzDY4XPcHppK4/5IlWlAaAiMQYAgw7+EfGlbJcA6zylj2eQWZ6yRapOA8BYzTt/U+AdFV5tMS1Xu2xHRF6kmHkU7DKPFU5i9uLxHvNFqkYDwFiVn9+Xyv+9/Z7u2Y+5bEdEXs4U/WXbrZkQHekvX6R6NACMlQn2q/haa25y2ImIrE8+fSeYX3vLN+iVQGkIGgDGyprKBwAiPf0vUhXlHm/R1u5OZ/Egb/kiVaIBYCzCsAUbY/vfVEorACLVkO/4Ocbc5bFCp8dskarQADAWz03bHcPkCq9+lIVzH3baj4hsmLV5b9mGQ8j07u4tX6QKNACMRRBVvvxvzI0OOxGRkazcZhnwF2/5KZPxli1SBRoAxsTsW/Glkb3NYSMiMpLh7YF7/RUwR5Lpfa2/fBG/NACMzR4xrr3bWRciMjprg4sBX6/ettIS6I0AqVsaAEYrXZgIvKHi6235HnfNiMioLJmzFmNK3vItx9NenOYtX8QjDQCj1crOQKrCqx+lt/OfLtsRkdFaewHwjKfwTRhntD2w1CUNAKNlzS4xLv4/d42IyJh0dz0H9jxv+damCcMJ3vJFPNEAMGoxBgBrfu+wEREZq5aWxcCAp/StGJjyKU/ZIt5oABg1u2vFlwb2foeNiMhYzZ/zFHCRt3wb5AhDfT+VuqI/sKNlqHwAMKkHHHYiIpUoR3m8HRVs38LqqZUfEy6SAA0Ao5EubIbl1RVfvzbSACCStELHI8B3veUbst6yRTzQADAarTFe/4MBSu2PO+tFRCpn6AYiT+nvJlfY21O2iHMaAEbDBtvFuPoBMNZZLyJSue70/Vh+7C0/MloFkLqhAWA0rI05AIhIzYiiswE/Q7nhE+RKb/aSLeKYBoDRCGIMAMbqBECRWlLouAu4zlN6ioguT9kiTmkAGA1rKh8ALP9w2ImIuGCi+f6y7VHMK27vLV/EEQ0AoxPjFoDRA4Aitaa749dYe7On9FbKdHrKFnFGA8DoVD4ABEYrACK1KAgW+gs3x5Fb8hp/+SLxaQAYSXjeZGDTiq+P7BPumhERZ7rnXgl42qbbTiAa1FHBUtM0AIxkzbpXxbreDvk6i1xEYjEWg79VAGNOpqNnC2/5IjFpABhJZDeLcbXloe2edtaLiLg1qe8K4EFP6W0EwWxP2SKxaQAYiaXyCd7Sz/KZZYfdiIhLYTiEsXl/BcxcuhZM9ZcvUjkNACMxZvPKr6XPYSci4sPzLd8CfN2qm0o0fpanbJFYNACMxBLnFsAqZ32IiB9L5qzFmJLHChnShYke80UqogFgJIbKVwAwWgEQqQtrLwCe9RS+Fa3BcZ6yRSqmAWAkkY0xAFitAIjUg+6u54ALveVbmyMMx3nLF6mABoCRGFP5HgCW1Q47ERGfhuxiYJ2n9NeyetpnPWWLVEQDwIjshIovDYyvbyYi4lox8yjwPW/5xp5GGLZ4yxcZIw0AIxtf8ZU2GnLYh4j4FtgefB0VDDuwetonPWWLjJkGgBGZygcAtAIgUlcWZn6P5Vp/BeyZWgWQWqEBYGRxHtxp8BUAa5LuQMS5IPC3MZDhjQxM0bMAUhM0AIwozgoAg87aqDWzF48nV7qebO+Hkm5FxKnuub/EmLu85VvO4ISlrd7yRUZJA8CIrFYA1mdCOY/lQEj9gK7Czkm3I+JUFPX4CzevZ8rzx/rLFxkdDQAji/EQoE057KN25IofB04d/gc7gcicl2g/Iq6talsOPOwt39gvMntxnNVFkdg0AIzEUPlSnTGNt8yX6d0Ry8XAi+//v5tcYc+EOhJx78JZg2B9bg/8WiZGx3vMFxmRBoCRWFv5Mr6xjfW0b3jeZFLBD4H1nW6mB5uksZjBb+Bve2DAnk64dJK/fJGN0wAwohiv8tlGWgGwhtXrLgHWf7/fmsP0VoA0FO/bA/Nq+vt1UqAkRgPAyOI8yNc4A0C2GGI4bCNfsS2di/UwoDQWv9sDA+Y0wvMm+8sX2TANACOxNsYKQIMMANnSDDBnjPh1QfmQKnQjUj3D2wMv91hhS/rXnewxX2SDNACMxJjK3+U3tv7v72WLu4H9Fi996G/9rDnYf0MiVVfwnJ8jt3ATzzVEXkEDwMhiLP+Z9T0sVz9OL20F/ARoG+UV79Y3Mmk4+fSdwA0eK2yOHT/XY77IemkAGJGNs5vfFGdtVNvsxeNZF/0QeO0YrhpP1Hqor5ZEEmOM51UAm6G9OM1vDZGX0gAwEmvWxLi6fgeACeVzMWa/MV9nzHEeuhFJ1qRnfwr8xWOFTRlHu8d8kVfQADASE+s94PocALLFY4EvVHj1+8kV3+qyHZHEhWGE8boxEFjm6BaaVJMGgJH9K8a19feXuav37cCSGAkGyymu2hGpGZPaLgae9lhhU+w47QsgVaMBYET2mRgXt9TVfb3OfBs2WAbEe3vBcjRdC+r7AUiRlwtnDYBZ6reI6SAMJ/itITJMA8CITJwBAMaZrRw14p9p6cWyY/wcJlOecLSDjkRqi0mdh9eNgezW9E89yl++yH9pABiJjbUCADba2lEnfnWVDgFOcBdoZxOG+vMljaV79mPA9zxXmceMZY15kqjUFH2DHkkqiDcAENT+ABCeN5nIfoPRbPYzWoY30j9FGwNJIyp6zt+B1z/6Cc81RDQAjMhGMVcAqP1bAP2DXwS2dZ5rzKnOM0WSlk/fDfzCaw1Ll9d8ETQAjCxqfSpegK3tFYDsojeBTXvJtkwnu3gHL9kiSTIm77nCnuQWvd9zDWlyGgBGMvnpR4EoRoL7n6ydKs8HxnsKDzBlHXQijae7/RcYc5fXGjbKec2XpqcBYCRhuA7DExVfb9jeXTOO5UpvBuP3XqPlWDrzoz1LQKR+WOt7FeBgssU9PNeQJqYBYDQsj8S4+g3O+nAtogv/fwamQatea5LGs3KbZcADfouYDr/50sw0AIyKjTMAvIZ0YaKzVlxJF7bB2M9UpZaxehhQGs/ymWVgkd8idibzitv7rSHNSgPAaBgTZwAwBNF2znpxpSU4BhhXpWq70Fl8T5VqiVRPW9/XMfzDY4UWymQ85ksT0wAwGlGsWwAQmBq7DWAN2M9XuejsKtcT8S8M14DxvArAsXT0bOG5hjQhDQCjYv8e7/Ig/va6LuUK7wGq+3qe4aN0LXpdVWuKVMXa84l3aNhI2gha9CyAOKcBYDQiG+8c8MDu4qgTN2xwXAJVWyhHJyZQV8Sv7q7nsCz2W8TO5rTFW/qtIc1GA8BoTJn8J+LsBWBN7QwAw6f0JbPNqOF4nXQmDSm1tgQ867FCG4NlPxt2SdPSADAa4awBYGXF11t2rpmDcaLxM4h73G/ltqB/6qcTqi3iz8J5fWDO91rDMIf24qu91pCmUhsfSnXB3lfxpYbJrJm6vbteYjk02fImWzPDkIhLqXE9+F4FaOUrHvOlyegb8aiZygcAgCG7q6NGKheG44CE9xe3b6F/kw8m24OIBwtOfgZLyXOVY+gqJP+9RBqCBoDRuz/W1Ybkt/Qc2PRdwCZJtwGBnmiWxrQ2VQT+6bFCisgUPOZLE9EAMFrWxBsArHmno05i9GCnJ93CC96nPc6lIS2Zswpjuj1XOYjOkrbXltg0AIxWsPY+4rwJYNh7eAOeJNkPJVv/xbTHuTSowehc4DGvNYwtaHMgiUsDwGh1dz1HvNsAm9LR+2ZX7YzZ8CY8b02s/ivYGdoYSBpSMfM8cLbnKlsSBEXPNaTBaQAYm9/FujpI7eOoj7Erl/dLrPb6tRLZOUk3IeJFW9/XgT/4LWKOIlc42m8NaWQaAMbCmltjJiQ3AAQ18AzCK9jjX9iYSKSxhOEQETnvdaw5j1yxhlb2pJ5oABgLY+OtAMD7nPRRCUsNDgBMoTxeqwDSmHrTV4G52nOVNizLyC2sgbd7pN5oABiLtr4/AAMxEt5ER0/1jwYefv+/Np+6N7Trm5c0rCjoAIY8V9kFO/5/6cy3ea4jDUYDwFiE4RBwR6wM03KQm2bGYPW03YHxVa87OpthW09JugkRL3rn3Ie1F/gvZN9L0HInncV9/deSRqEBYOxiPghI9QcAvC7/X0mc1yMBMBn99CINq3VciN/NgYZZdsSwgmzxx+QKe3uvJ3VPA8BYWa6Pd719f9X3wg+it3lKLmNb5gLLY+ZsiWk5yUVDIjVn/qlPV3HfCwN8DGt+R7Z4B7nSqZxe2qpKtaXOaAAYq8njbgDWxUjYkoFNqjud22BnP7n8lp7ZfyNKfYXYqwB0ki5MdNGWSM3Jz/02cF2Vq+6BtUsYtI+SLV5Dtvh5PW8jL6YBYKzCU1ZjuCVWRmQOc9TNKFgD1tNrQva3wPB9TmOWxQzbihZOiN+TSC0ylhTHA/0JFE8BBwPfwo57lGxxKZne3RPoQ2qMBoBKWPOLWNebKg4AuSXbAL7etb/zv//VfgUox4szOcJwQrwMkRq1IL0SEj/OdxPgBFLBnWSLN9NZPDT5LcolKRoAKmGJNwDADmSLuznpZSQm8rP8DxDYlf/5793p+8FcETPxNayeemLMDJHa1dZXAO5Ouo0X7Ivhp+RKt9FZ+JgGgeajAaASD73mduCZWBmG6qwCRNFO3rLXBQ+95J8N8VcBDKcRnjc5VoZIrQrDIaw5GsyapFv5D8s7MObHdJbuorPwacKwJemWpDo0AFRi+cwyll/HyrB8sioTt/F2AFAfpfbHX/Ir3e1/Ant5zNxX0T/YHjNDpHb1tN8D1v82wWNleDvGXEb/1AfIFtJ6YLDxaQColDH/GzPhTXQsepeTXjbG8gZPub8HY1/x62V7FrGfBbCdpAubxcsQqWH59nMx/CzpNjbgdWAK2HEPky0u1KmdjUsDQKUG7U+I9zogBPY4N81slJ8BwPB/6/31Qsefgctipk8lZWrvJyQRZ4wlGjoWzOMjf21ipgE5ougBssVldC06IOmGxC0NAJUqpZ8FG/e93hm0F6c56Wd9wrAFzGu9ZFuz4VchU/Ys4u5/bphDurBNrAyRWtaTfRKio4FXrqTVlhZgBlF0I7nSneSKJ2jPjsagASAOw/djJkykxRzppJf16d9sO4b/8rrXYm/e4O8tyPwV+E7MChNJBafHzBCpbfnMtS88PFsfrN0dy1JaggfpLJ6pXQbrmwaAOAb5X2AwXoj1twWuifws/8NjLEg/uPEvSZ1N7FUA+wU6l7w+VoZIretu/zKwNOk2xsZujSFk0D5EtngJnSVf242LRxoA4ihm/gUx3wYwvJ2O0oFuGnqZyNP9f7h1xK/Iz3kAuDRmnXGYwfr56UikIsaST58IdOH/6GDXxgOfw9i7yZauorP4vqQbktHTABBf3INwwNjZDvpYTy7be8pd/wOAL5fiq8ReITGf1ral0hTy6W4isx/Y+5JupQIG7Acx/JJs8TY6CzOZsSyVdFOycRoA4lqTWoZldawMw8fJ9Hp4WM/6eQAwsqMbAIZvE3w7ZrWAVNAdM0OkPvS230Zf225YM5dqHCHsx54YcwXbP/onssWT9MBg7dIAENeSOasIbNwtcFtIpU520s+LGfwMAC38fvRfHCwg9r4AHERX6ZCYGSL14cJZg/S0L2ZNagewGWBl0i1VaAfgfFrMQ3QWz2De+Zsm3ZC8lAYAF6Lg6/FD7AmESyfFz3lxJNs5zRs2yIRVK0f91fm5f3FwRgBEtpsw1J9XaR5L5qwinynS1rcD1n6U6h8n7MqWGL7C0NqH6SwuYPbiKUk3JMN0+IMrncW7Mbw9Zspx5NPfdNJPGAb0T10DtDrJ+6+/kE/vOKYrugo7E5l7iDtwGvt5ujOXxMoQqWfZ4h4YPos1nwS7ddLtVOhJsOewpuUClsxZm3QzzUw/UblicLAKwFxn5wMMbL417j/8wfDXMV+zMHMv2B/Frm3NWbqfKE0tn76T7nSala/ZFux0sN8B+pNua4xeBabEhPIfyRU/nnQzzUwDgCvB2u8AAzFT3kZu0UdctAPrPO3fbf9S2XXmbOLvePZaWoM5MTNE6t/ymWXymavJZz5LW98WWD6AsYuBx5JubQy2x/IjsoXryBV9HVomG6EBwJWF8/rAxH3vHaz9ooNugGBbNzkvEwUPVHRdPn03hp/Hrm/tPDp6toidI9IownANPenr6M7Mpa3vtQTB/kA38KekWxsd834sd5EtnEUYTki6m2aiAcAlm+om/kYee5MrfcBBMz4eAARb6QoAEJmzHHQwDdPyZQc5Io0nDCMWzr2ZfLqLfPotpNgBbDvDDxDW8iZD48H8D/1T/0Bn8aCkm2kWegjQtWzxO8BnYqbcTlvfOwnDqOKEXLGIpT1mH69kzFvobq/8J4ts4Tow74/ZxRCB3W342QIRGZXO/KswLR8F+zEIDgJbqz9tW+AiBskOH7omvmgFwLXALiT+ve49GZhydKwE62UTIMukZx+Kl2DOdtBHC5EpOMgRaR492SfJp79BPvMR7OAWYI7A8m1gVdKtvYwBvkCruZ9c8Yikm2lkWgHwIVv8CRD3Yb4nCNa+efjZgop6uBXYK2YPL/cY+XT8I3o7izdicHC2uPkI+fafxs8RaWJhOIHVUz6AMZ8FPo6Pt4fiMPwME5zMwrkPJ91Ko9EKgA+W+Q5StiKacGbFVxvcPwRo7UonOcZ+1UkOtocTltbWNyuRehOGa+jJXEk+PRM7tC2QpZYeILQcShT9ns7SLGevSQugFQB/csWfY5keM8UScSi96avGdFUYjqN/6vO4H/AuI58+yklStngbsGf8INtOPrMofo6I/Jc1ZIsHgjkezOE19LzALwiCL2g1wA2tAPhibJb4T90aAi4ht+Q1Y7pqzdRt8fH/rXG4J7m1Lp4FAMyZnHbu5m6yRGSYseQzN5BPH8VQtM0LhxPdlnRXwAdeWA04LulGGoEGAF+Gn1B3sTvgltih7xKG40Z9RdnTKYCWB51l9aR/gjF3OUjalKFBvRYo4ksx8y962heTT++NMW8B+xWgsv1A3JiCsd8gV/w56UL8Z5KamAYAn1pSZwKVPcT3Uu+mf+qloz5f2wa+BoD73YUZy1D5OGCdg7AT6eqNew6DiIyku/1P5DNnkk+/Ect+WHsuSR1bbJlOi/kDuUK8N6aamAYAn+bPeQo4x1HakWz/6GXMXjx+xK8MPL0CmFp7n9PEQsddWL7iIClFOThXDwiJVFFP+rf0ZGazJrUtmJlgrib+0d9jNQ1rLiZb/Amnl7aqcu26pwHAtzWpReBs6fxIJpSvob346o1+lcXHAPBoxa8kbszkvoVgbomdYziAXMnNA4oiMnpL5qwl376cfPt0TGp7MGdQ/VsEH2HQ3kO29OEq161r+ompGjqLB2G4Fnf/vp/C2lPpySxb7+9mC1eCcfsXwXINPekPOs38t0zvjqSCu4BJ8YLM46wJ3sySObW2sYlIk7GGztL7MaYD7CFU77PGgllK28QOwllxD2dreFoBqIae9HUY+w2HiVtizBVki9eTW7SebXWN+5MAjXG7/P9ihY4/Y0xX/CC7NROiMH6OiMRjLD3p68i3TyewbweuIP4OqaMqDPZE+gfuJFdw8JpxY9MKQLXMXjyFCeU/gJfl+T+AuYLAXE8UnQwcDoz+rYHROY58+puOM1/EGrKla4G4B4EMYYPd6Zn7BxddiYgjucKe2KAb7HurVHEQbMjKbReyfGa1n02oC1oBqJYlc1aB/QJ+puBdwJ5FFN0IfAr3H/4QpeLfp98oYzEtR4N5PGZQCyZa4qQlEXGnO3M7+fb3Yc1ngaeqULEVzFfZ7tHr6ejxczpqndMAUE35zLVAPuk2KvBPemc7fAVwA7pnPwbRTGAwZtJ7yBY/5aIlEXGsp/07ROWdXjiIyD/DAQSpu8mWDq9KvTqiAaDa+ib9j5On3qvJ8hsw1bh/B/nMjWCz8YNMgfbitPg5IuJcb+c/6Ul/bvgBQfu3KlScBvb7ZIvnE4a1sq1x4jQAVNuFswYpl2cC/0q6lVEzXFnVevnMIiyXxAuxW9NqXBzKJCK+5DPXMsTOGL5M/JW/0TiJ/il30FXYtQq1ap4GgCQUOh7BcDzVeSo2rjJROYEjd4dOAX4lxaxUAAAXlklEQVQfL8OeQNei/Zy0IyJ+FDPP050OiYJ9HW0PPgKzE5H5LbnCMf5r1Ta9BZCkbOF0MI6OxvXmF+TTBydSeV7hjZTNbUCcpfzf0zfpHVw4qxo/XYhIHGHYQv/UDJgvV+kEwssw606iu+u5KtSqOVoBSFI+cw7gcn8A96z9WmK1F2T+iuUo4m0vuitT+ztctSQiHoXhEPl0N8buAdxahYqfgXG3N+stAQ0ASeubdDJwbdJtbMAjTF5V3fv/L9eT/hkwN16IOYN5xTc46UdE/OtO309b3/4YTgfWeq1l2ZHI3NKMhwrpFkAtyC3chGjcjRhq60Q7wyy60xcm3QYA2VIP2Mp/kve5lbGI+NNV2JnIXAz439nP8m0mTzqxWbYR1gpALejueo4hpoPL43Zju5dJfR53/hujtmdzwPKKrzccor0BROrQwsy99E3aD8yZ+H5TwPBZ+gdWMK/wRq91aoRWAGrJ6aWtGLTXAbsk3EkZy0H0pK9PuI+XCsMJ9E+9Dti/woSnaEnt/MIxzSJSb7LF3YBLgLd5rtSHtcfQk/mR5zqJ0gpALTmn/QlaWt+D5aZE+7CcVXMf/gBhuIaW1o9h+HOFCVsyVNY2wSL1Kp++m7a+vcCcQ7yHg0cyFWN+QLbUQxi2eKyTKK0A1KLZi8czofwthvf1r7af0Nb3CcIwSqD26GQX7wDlm4FXVXS9tYc1+mQv0vC6Fh1AFH0b/r+9Ow+TorrXOP491TMsM6OAuxIFvZpF0bhE4wgakggRMRqMoMYl7vi4DN093cPo9cltTaLM9Ex3A6JiEonLNQpKbmI0g0ZFI+BNTB4ToyZqcoEo5ibqZZBtlq5z/xhEQJbp6eqq7p738zz+QU31+b3AI/XrU6dOMbKwhcyzVDjnluPMoRqAomUN8XQYzG3AQH9qmp9Svfo8EolOf+rloWcq8BlgWM6fNbxLlx1FOlo6uzGKyCdNnzEEd8DtYC4scKWVuM7ZtE77XYHr+Eq3AIqWsSSjaeAkMH8ucDELzKF98LklcfGHnqlA454O5L6Bh2V/Kkza+1Ai4qumxnaS0YvAnAesLmClg3DsC+X2qKBmAErB9bMGMjgbxfLvQLW3g5t/QPZykvVPeDuuT2LpsRieAAbn/mF3Ysn+vkVka9HWAwk59wFjC1xpDu1VkXLYXVQNQCmJth6IE2rE2EuAqjxHew9DCjpvL/ltMOOp08D8DBiQ4yf/zsbQKGbXrSlELBHxWSLhsG5IDPguuf970HuWFzBdk0k2/KNgNXygBqAU1bfshQlNBSbnuHlQN/AshkeoGvAgiWvXFiih/2KpSRgzH8h1xe4PSUauLEQkEQlItPUYQs5/Ap8rYJV3gDNJRn5fwBoFpQag1MVmH4zT9TVc50iM+xmsGYH5aG2H6QT7BpbXcXiFLvvLsl741pC+AMt95Lq2xdozaYkGu+WxiHgrkhpMhUkC11C4a916MBeTDD9aoPELSg2AlJdY6jyMuZ/cZgL+RaU5klvD/1uoWCISkHhqPJh5wAEFqmAx3EJz+GYwpfCK9830FICUl5boQ2C+RW5bhu5Nl51bqEgiEqBk9EkqQkcDPy9QBYPlP2jIPEQk1YfFyMHRDICUp1h6IsY8ktM7xY29hObovQVMJSJBimcuxto5GGoKU8C8CJ2TSmVxoBoAKV89TwcspPePCK7BzR5Fa2xFIWOJSIAa04fQbe/HmJMKVOEdXOesUtg0SLcApHwlo21YzgDW9fITu+NUzCOR0P8XIuVqRuRvrKkeW8D3CQzHuIuJpc4qwNie0j90Ut5aIs/gOKcBvXzW336ZtUPCBc0kIsG6e2oXyfC/Yzk5j5eL7ZihBmMW0pCZ7vnYHtItAOkfoq3HEAo9AXa/XpzdAZxIMvJyoWOJSMASc6tYt+F7YOuAUAEq3MfG0FXMrusowNh5UQMg/UdjeiRZ2oDP7PJcy1s4nceW/C6JItI701s/j+vcDZxQgNGXUWkmFdujxroFIP3HjMhyKkInA7/d5bmGQ3EHzix8KBEpCk31f2D58JOw1NP7dUO9VUuXfZHYzFEej5sXzQBI/5OYU8O6rgVgT9vludZeQEv0QR9SiUixiM0+GNM9Fxjn8cgfYsw3aQ4/5fG4faIGQPqnRKKCdUPuBK7Y6XmWtbjucaTqvV8oJCLFLZ6ZDPYOYC8PR+3E2im0RH/m4Zh9ogZA+jFriM/8Htgbd3Hib2ivGlMOr/8UkRzdmNmXbjsLyxQPR+3EcC7Nkf/ycMycqQEQ6Xl/wD3sfMOgZpKRon6kR0QKKJaeiOFO4ECPRuzEmDOCvB2gBkAEIJ4eDfwU2HsHZ7hgJ5KMtvmYSkSKyfQZQ8gOSmPspR6N2I41p9AS/qNH4+VEDYDIR3oW/jwGHLGDM97DhI6hue5tP2OJSJGJp88H7gJ292C0d6DrC0G8P0CPAYp8pOX6/6F6wInAYzs4Yy+su4Cr5lb6GUtEikwy8hPc7FFYu9SD0YZD5UISiQEejJUTNQAiW0pcu5blwyeBSW//BHsiu6/7vr+hRKTotMZWULPmy8A9HoxWy7ohLR6MkxPdAhDZkZ7FgT8Eqrf5icVwdtAreEWkSMRT0zZ9acjvmmrsZTRH53kTqhfl/CokUpJiM0dh3IXAYdv85ANCHMeMyPIAUolIsYlnLgb7AyCfqfz1wGi/3kOiWwAiO9My7U84HccD227asQdZHuP6WV4sAhKRUpcM3wfmQvJ7xXAV2IVEUnt4FWtnCvHmI5HysuRXHSxte5jRyzrBjOXjxnkfKtzPM/zyh3ltgQ0woYgUg6Vtr3HSaWsw7Hqb8R0ywwiZUYyrfYjFiwv674pmAER6xViS0VvBng6s3uL46Rz8ju+Ld0SkSLWEZwL5rQ+yTGTtkBu8CbRjagBEcpGMPknIHg/mz5uPWcI0pK4OMJWIFA1jcbNhoCO/YbiFeGq8N5m2Tw2ASK5mRN+i2x0N5tnNx6yZRSz9lQBTiUixaI2twHxi3VCuHDD3E0kN9yTTdugpAJG+un7WQAZlHwbO2nRkNY49haboK0HGEpFdaLxjGN3ZoZjuYRhnGLjDcM0wsNU4ZiAArh0GgGEQH78nZAhbf3F2gfbtFzFHgT0x76zWLmVN9dhCvIxMDYBIPq6aW8nQDfdh7XmbjqwixGg9HijiN2sIZ/ajwhyE4VNYeyAOI7D2QHCGg90HGLbpv1JzN8nIVK8HVQMgkq/J80OMWPWDzS8IMbxBKDSG2+r+FXAykfKTmFPD+o7DsWYU8DksR2I4DPgU+T2DX+RsmGR0ppcjqgEQ8UIi4bB2yD0Yvr3pyEuYzq/QPP3DQHOJlLJIajgVzhiwx4IdBeZwYAT989qVBfMNkuFfeDVgf/xDFCmMRMJh3e73btoMBDDPstGZwOy6/FYDi/QXjelDyJoxYEeDHbPpgi8f2wB2Asnoc14MpgZAxEuT54c4eNUDm9cEWB6hpv18EonugJOJFJ/G9EiyfB3DBCwn0bPITnZuDcZ+leboS/kOpAZAxGuT54cY+c79wPmbjixg+fDzWTAlny1CRUpfIuHw4bBjCLlfB87Aciy6DuXO2B/RHL0i72G8yCIi27hqbiVDNjwMdhIA1syjZvUVJBJuwMlE/JVIOGwYOg7XTgHOAPYJOlLJ86gBqPAii4hs4+6pXSQS57FuyALgTIy9lHVDO8BeA0bvDZDy15g+BJdLWMclYA8MOo58kmYARArpk/sEzCQZCQeaSaRQEnOrWL/+m1guA76ErjFessBLYH5ONjufVP0b+Q6ovxyRQps8P8TBb9+JNVduOvJDNoau09MBUhYSiUGsG3oq1p6DYRKgV2R7ZwPYpzHmMTp5jEzkXS8HVwMg4gtriGdmAA2bDvwWxzmHpmkrg0wlkjtrmJ46CmtOxTXjMJwMVAWdqoyswthf4vIYNdVPkZi6vlCF1ACI+Kkh9W2smQsMBD7AcCXNkYVBxxLZOWtoSI3FhqYA3wC7X9CJyofZCPbXwJM4dpGf7xJRAyDit4bWE8FZiGX/TUfm0F4VKcTLPkTyYw2x9PkY0wgcGXSaMvI6hkVYu4jq6ucL+S1/Z9QAiAShYfYB2K65YM7oOWCfJjRoMjOu+b9gg4lsMn3GENxB8zY/yip9tQHL78AuA5bRbV70+l5+X6kBEAlSQ/oCLBlgL+AVuu1Y0tEPgo4l/VzPav7nsRwXdJQS8gGwEsMbuLyGw6vAq6yueqtYZ/fUAIgELZbcB1NxG3Ax8DzLh4/XroESqHjqZjDfCTpGEckCq7CswLACy0ocuxJrV+KYFQweuILEtWuDDpkrNQAixSI+8zBwY8DnSUZODDqO9FM9W1mvon/t2JcF/gbmr2BX9lzgWYm1y3Hdley29p1yfJ+HdgIUKRbJaW8CU0nMqQk6ivRjB608DEJlfPE3G7H2JQwvgnkF7J/otq+Tjm4IOpnfNAMgIiIfmzw/xMi3fw7m9KCjeMNsxNrnMPwKx1nKevM7bcLVQw2AiIhsLZLagwrzZ2DvoKP0jfkH1j6FMY+x0VnE7Lo1QScqRmoARETkk+KpaWAyQcfopfUYnsPap3B4kqboq0EHKgVaAyAiIp9kuu7BDrgZGBJ0lO3IYngZa57C2qfoCC3RtH7uNAMgIiLbF8+kwEaCjgF8CPwRywtgl1Ax6AVtmpU/zQCIiMj2ZbN3EXLC+PdlsRP4O5g3se4rOLyK4SUGr3mdRML1KUO/oRkAERHZsXj6eeBkHypNp7q9RRd6/zhBBxARkaL2Y5/q3MTqIbv7VEtQAyAiIjtTXfUQ8L4PlXajkit8qCObqAEQEZEdS0xdj2W2T9UiXD9LswA+UQMgIiI7VzOgFVjlQ6UDGOje5kMdQQ2AiIjsSuLatWCivtQy9mpi6bG+1Orn9BSAiIj0Tiz9KIazfaj0PiFOYEbkbz7U6rc0AyAiIr3TzXWAHxvw7EmWR4klq32o1W+pARARkd7JRN7F+LYz4NFQ0abXYxeObgGIiEhu4umfAWf6VO1XdNszSUc3+FSv39AMgIiI5CbrXges9qnaqVSaNhrvGOZTvX5DDYCIiOQmVf93MBcB1pd6llPo7vgNjalDfanXT6gBEBGR3CXDv8DaFt/qGQ4l6/yaeMqP9xL0C2oARESkb2rW3Ijhef8K2v3APENDZrp/NcuXFgGKiEjfhdP7U2l+33Nx9pHlESorr+a26/x4T0FZ0gyAiIj0XSbyLrjnAd2+1jWcQ3fXqzRk/HoaoexoBkBERPIXT8eAZACVLXA31QNiPVsWS2+pARAREW/EMnMw9pqAqi8HewnJ6HMB1S85ugUgIiLeqFk9DUxbQNVHgnmahnSrdg/sHc0AiIiIdxqadsMOeBo4PsAUb4MJkww/GmCGoqcGQEREvBVOD2WAeQZrjwk4yTMYcw3N4b8EnKMoqQEQERHv3ZjZl277PJZPB5xkA5hb2egkmV3XEXCWoqIGQERECiPevB9UPgkcGXQUDG/gEqUl8njQUYqFGgARESmcxjuGke14HKgNOkoP+zQO02iKvhp0kqCpARARkcJKzKlhXecDwFlBR9mkC8NsTMctNDW2Bx0mKKGgA4iISJlb/EQn42vn0zXQgDmF4L98hoBabMVljD5tNeNrX2bxYn/ebFhEgv5LEBGR/iSWOgtjfgwMDTrKFl7CUkdLZFnQQfykBkBERPw1feZBuO5DFM26AKBnS+FHcJwYTdNWBh3GD7oFICIi/lrS1s742vvpGrQ78EWK48uoAY7AtVcy+muW8bW/YfHibNChCqkY/tBFRKS/asicibXzgD2CjrKNNzHuVJrrnw06SKGoARARkWAV5y0BAIvlAbI2TDr6QdBhvKaXAYmISLCapq2kun0sMJOee/HFwmC4iArzCrHUpKDDeE0zACIiUjyK95YAWO6npupqElPXBx3FC2oARESkuBTvLQGA17HOFFqm/SnoIPnSLQARESkum28JmDTFdUsA4HPgLiOeuTjoIPnSDICIiBSveGo8xvwYy/5BR/kEa+aRda8lHd0QdJS+UAMgIiLFLZweygBzJ9aeF3SU7XiZEJOYEVkedJBcqQEQEZHSEM9cjLVzMNQEHWUb72Occ2me9nTQQXKhNQAiIlIakuH7cN3jwLwYdJRt7Il124hl6oIOkgvNAIiISGmZPD/EwauiWHszMDjoOFux3EtHaCqz6zqCjrIragBERKQ0xWf9G2R/BHwp6CjbWEZF6Cxuq/tX0EF2Rg2AiIiUMGtoyFyJJQVUB51mC3/FmIk0h/8SdJAdUQMgIiKlLz7zMIw7E8uEoKNs4T3gGyQjS4IOsj1qAEREpHzEW0/HOGksnw46Sg+zEet+m5bo/KCTbCsUdAARERHPLH3yTY44ey6DOt8HUwsMCjhRBcacw0mntbN0UVE9vaAZABERKU83Zval070JY64CBgQdB8tNtES+H3SMj6gBEBGR8hZtPZCQcxNwGVARcJrZVLeHSSTcgHOoARARkX6iMT2SLDcAlxPoLXD7ANVrLiWR6A4ugxoAERHpbxpTh5I1ceBSoDKQDJZHqGk/P8gmQA2AiIj0T/UtIwg5Uay5AqjyvX7ATYAaABER6d9umLU32ey1WOqAYT5XX0B1+7eCaALUAIiIiAA0NO2GrbwMTBwY7mPlQJoANQAiIiJbSiQGsW7IpWDjYA72p6h5kOrVF/n5dIA2AhIREdnS4sXdLF30EuNr59A5+E0Mnwb2KXDVI+kcvDdL254ocJ3NNAMgIiKyU9YQS5+BMTcAtQUtZfguzZHvFLTG5lIiIiLSO9NnjsHNTgczkUJdQy31tERSBRl7C2oAREREchVPH40liuFbeH873WLs5TRH53k87lbUAIiIiPRV/azDcbLTgfPxdlOhLoyZSHP4KQ/H3IoaABERkXw1pkfSTQLDhXg3I7AaNzSa1rrXPBpvK2oAREREvFLf8lmc0C3AOXhzjV2O7f4iLfF/ejDWVtQAiIiIeK0hdQLWfB84Ne+xrF1KzZqvkkhszD/Yx9QAiIiIFEos9XWMyQCH5DnSApLhc8FYL2KBNgISEREpnKWL3mB87V10DXwfa8ZgGNDHkY5gzH9vYEnbEq+iaQZARETED/UtI3CcVjDf7OMIWSzjaYk840UcNQAiIiJ+ireeDs4PgAP68On3CfEFZkSW5xvDyXcAERERyUGy/glCA0cBd/fh03uS5SGunzUw3xhaAyAiIuK3Fx7fyNJFv2D0hNeAsUB1Dp/+FCH2yPfFQWoAREREgrK07TXGTrgPl0OBz/b6c4bjGT0hy9K25/taWmsAREREikE8czHYO8hlNsDSREuksS/l1ACIiIgUi56dBH8CHN3rz1hzBy3Trst1jwDdAhARESkWy558j/G199I9cHcwJ9CbL+qG4xmz7ADG1T7O4sW9bgI0AyAiIlKMGjJnYu09wJ69Ot9yLyuGX86CKdnenK4GQEREpFjdmNmXLns/MK5X5xvms7rqQu6e2rWrU3ULQEREpFj9um0dwy9/kGEfWuBkdr1/zxEM7jqWcbULWby4e2cnagZARESkFMTSYzE8AAzf9cmmjW73bNLRDTs6QzsBioiIlIKWyGLc7NEYHt/1yfY0Kk0bDU277egMzQCIiIiUFGuIZSIYbgV2tSXwEpyOiTQ1tm/7A80AiIiIlBRjaYmkcNwvAq/u4uTRuAPv3d4P1ACIiIiUoqb6P9Btj8fa24GdPf9/FvXpCdse1C0AERGRUtfziuF7gH13cMZvSUZO2PKAZgBERERKXbL+CWz3UcBzOzjjeOozp2x5QA2AiIhIOWiJ/5P2qnFYM2+7P3fsNVv+UrcAREREyoo1xNKzMOa6bX7QRRcjyETeBc0AiIiIlBljaYnUYc0d2/ygkgFM3XyWz6lERETEF9YQz9wFXLXFwX+yMXQQs+s6NAMgIiJSloxl+fBrgHu2OLgPg7NTQDMAIiIiZc4a4plmINbzS95iTdXhagBERET6g4b0BVhuB4Zi+Y4aABERkf4inN6fSm4FJgcdRURERPzWMPuAoCOIiIiIiIiIiIiIiIiIiIiIN/4f+eLJT5kHUqQAAAAASUVORK5CYII=;" parent="SU1acnZ5uy_IHtQN52sj-16" vertex="1">
          <mxGeometry width="30" height="30" relative="1" as="geometry">
            <mxPoint x="19" y="15" as="offset" />
          </mxGeometry>
        </mxCell>
        <mxCell id="SU1acnZ5uy_IHtQN52sj-21" value="" style="strokeColor=#dddddd;shadow=1;strokeWidth=1;rounded=1;absoluteArcSize=1;arcSize=2;" parent="ItV2FaSNyb-uXS4h-aJt-21" vertex="1">
          <mxGeometry x="33.25" y="180" width="139" height="60" as="geometry" />
        </mxCell>
        <mxCell id="SU1acnZ5uy_IHtQN52sj-22" value="&lt;font color=&quot;#000000&quot;&gt;AI-API&lt;/font&gt;" style="editableCssRules=.*;html=1;fontColor=#999999;shape=image;verticalLabelPosition=middle;verticalAlign=middle;labelPosition=right;align=left;spacingLeft=20;part=1;points=[];imageAspect=0;image=data:image/svg+xml,PHN2ZyB4bWxucz0iaHR0cDovL3d3dy53My5vcmcvMjAwMC9zdmciIHhtbG5zOnY9Imh0dHBzOi8vdmVjdGEuaW8vbmFubyIgd2lkdGg9IjIwIiBoZWlnaHQ9IjExLjI1OTk5OTI3NTIwNzUyIiBmaWxsLXJ1bGU9ImV2ZW5vZGQiIHZpZXdCb3g9IjAgMCAyMCAxMS4yNTk5OTkyNzUyMDc1MiI+JiN4YTsJPHN0eWxlIHR5cGU9InRleHQvY3NzIj4mI3hhOwkuc3Qwe2ZpbGw6IzQyODVmNDt9JiN4YTsJLnN0MXtmaWxsOiM2NjlkZjY7fSYjeGE7CS5zdDJ7ZmlsbDojYWVjYmZhO30mI3hhOwk8L3N0eWxlPiYjeGE7CTxwYXRoIGNsYXNzPSJzdDEiIGQ9Ik00LjY4IDEuNDJIMi40MkwwIDUuNjdsMi40MiA0LjI2aDIuMjZMMi4yNyA1LjY3eiIvPiYjeGE7CTxwYXRoIGNsYXNzPSJzdDAiIGQ9Ik0wIDUuNjdsMS4xMSAxLjk3IDEuNDYtMS40NS0uMy0uNTJ6Ii8+JiN4YTsJPHBhdGggY2xhc3M9InN0MiIgZD0iTTEzIDBINy4xMkwzLjgxIDUuNjNsMy4zMSA1LjU5SDEzbDMuMjktNS41OXptLTIuOTMgOC4zNmEyLjY0IDIuNjQgMCAxIDEgMi42Ni0yLjY0IDIuNjUgMi42NSAwIDAgMS0yLjY2IDIuNjR6TTIuNDIgMS40MkwwIDUuNjlsMS4xMSAxLjk3IDEuMTYtMS45NyAyLjQxLTQuMjd6Ii8+JiN4YTsJPHBhdGggY2xhc3M9InN0MSIgZD0iTTEzIC4wOGgwbC0xLjcgMy4zM2EyLjY2IDIuNjYgMCAwIDEtMS4yNSA1IDIuNjIgMi42MiAwIDAgMS0xLjE4LS4yN2wtMS43NSAzLjEySDEzbDMuMjktNS42M3ptMi4zMiA5Ljg1aDIuMjdMMjAgNS42N2wtMi40MS00LjI1aC0yLjI3bDIuNDEgNC4yNXoiPiYjeGE7CTxwYXRoIGNsYXNzPSJzdDAiIGQ9Ik0yMCA1LjY3TDE4Ljg5IDMuN2wtMS40NiAxLjQ2LjMuNTF6Ii8+JiN4YTsJPHBhdGggY2xhc3M9InN0MiIgZD0iTTE3LjU5IDkuOTNMMjAgNS42NWwtMS4xMS0xLjk3LTEuMTYgMS45Ny0yLjQxIDQuMjh6Ii8+JiN4YTs8L3BhdGg+PC9zdmc+;" parent="SU1acnZ5uy_IHtQN52sj-21" vertex="1">
          <mxGeometry width="30" height="16" relative="1" as="geometry">
            <mxPoint x="15" y="22" as="offset" />
          </mxGeometry>
        </mxCell>
        <mxCell id="SU1acnZ5uy_IHtQN52sj-71" style="edgeStyle=orthogonalEdgeStyle;shape=connector;rounded=0;orthogonalLoop=1;jettySize=auto;html=1;exitX=0.5;exitY=0;exitDx=0;exitDy=0;entryX=0.5;entryY=1;entryDx=0;entryDy=0;dashed=0;strokeColor=#4284F3;strokeWidth=2;align=center;verticalAlign=middle;fontFamily=Helvetica;fontSize=12;fontColor=#000000;labelBackgroundColor=none;startArrow=block;startFill=1;startSize=4;endArrow=blockThin;endFill=1;endSize=4;" parent="ItV2FaSNyb-uXS4h-aJt-21" source="SU1acnZ5uy_IHtQN52sj-38" target="SU1acnZ5uy_IHtQN52sj-42" edge="1">
          <mxGeometry relative="1" as="geometry" />
        </mxCell>
        <mxCell id="SU1acnZ5uy_IHtQN52sj-38" value="" style="strokeColor=#dddddd;shadow=1;strokeWidth=1;rounded=1;absoluteArcSize=1;arcSize=2;" parent="ItV2FaSNyb-uXS4h-aJt-21" vertex="1">
          <mxGeometry x="38.25" y="377.5" width="150" height="61" as="geometry" />
        </mxCell>
        <mxCell id="SU1acnZ5uy_IHtQN52sj-39" value="&lt;font color=&quot;#000000&quot;&gt;Auth-API&lt;/font&gt;" style="editableCssRules=.*;html=1;fontColor=#999999;shape=image;verticalLabelPosition=middle;verticalAlign=middle;labelPosition=right;align=left;spacingLeft=20;part=1;points=[];imageAspect=0;image=data:image/svg+xml,PHN2ZyB4bWxucz0iaHR0cDovL3d3dy53My5vcmcvMjAwMC9zdmciIHhtbG5zOnY9Imh0dHBzOi8vdmVjdGEuaW8vbmFubyIgd2lkdGg9IjIwIiBoZWlnaHQ9IjExLjI1OTk5OTI3NTIwNzUyIiBmaWxsLXJ1bGU9ImV2ZW5vZGQiIHZpZXdCb3g9IjAgMCAyMCAxMS4yNTk5OTkyNzUyMDc1MiI+JiN4YTsJPHN0eWxlIHR5cGU9InRleHQvY3NzIj4mI3hhOwkuc3Qwe2ZpbGw6IzQyODVmNDt9JiN4YTsJLnN0MXtmaWxsOiM2NjlkZjY7fSYjeGE7CS5zdDJ7ZmlsbDojYWVjYmZhO30mI3hhOwk8L3N0eWxlPiYjeGE7CTxwYXRoIGNsYXNzPSJzdDEiIGQ9Ik00LjY4IDEuNDJIMi40MkwwIDUuNjdsMi40MiA0LjI2aDIuMjZMMi4yNyA1LjY3eiIvPiYjeGE7CTxwYXRoIGNsYXNzPSJzdDAiIGQ9Ik0wIDUuNjdsMS4xMSAxLjk3IDEuNDYtMS40NS0uMy0uNTJ6Ii8+JiN4YTsJPHBhdGggY2xhc3M9InN0MiIgZD0iTTEzIDBINy4xMkwzLjgxIDUuNjNsMy4zMSA1LjU5SDEzbDMuMjktNS41OXptLTIuOTMgOC4zNmEyLjY0IDIuNjQgMCAxIDEgMi42Ni0yLjY0IDIuNjUgMi42NSAwIDAgMS0yLjY2IDIuNjR6TTIuNDIgMS40MkwwIDUuNjlsMS4xMSAxLjk3IDEuMTYtMS45NyAyLjQxLTQuMjd6Ii8+JiN4YTsJPHBhdGggY2xhc3M9InN0MSIgZD0iTTEzIC4wOGgwbC0xLjcgMy4zM2EyLjY2IDIuNjYgMCAwIDEtMS4yNSA1IDIuNjIgMi42MiAwIDAgMS0xLjE4LS4yN2wtMS43NSAzLjEySDEzbDMuMjktNS42M3ptMi4zMiA5Ljg1aDIuMjdMMjAgNS42N2wtMi40MS00LjI1aC0yLjI3bDIuNDEgNC4yNXoiPiYjeGE7CTxwYXRoIGNsYXNzPSJzdDAiIGQ9Ik0yMCA1LjY3TDE4Ljg5IDMuN2wtMS40NiAxLjQ2LjMuNTF6Ii8+JiN4YTsJPHBhdGggY2xhc3M9InN0MiIgZD0iTTE3LjU5IDkuOTNMMjAgNS42NWwtMS4xMS0xLjk3LTEuMTYgMS45Ny0yLjQxIDQuMjh6Ii8+JiN4YTs8L3BhdGg+PC9zdmc+;" parent="SU1acnZ5uy_IHtQN52sj-38" vertex="1">
          <mxGeometry width="30" height="16" relative="1" as="geometry">
            <mxPoint x="15" y="22" as="offset" />
          </mxGeometry>
        </mxCell>
        <mxCell id="SU1acnZ5uy_IHtQN52sj-42" value="" style="strokeColor=#dddddd;shadow=1;strokeWidth=1;rounded=1;absoluteArcSize=1;arcSize=2;" parent="ItV2FaSNyb-uXS4h-aJt-21" vertex="1">
          <mxGeometry x="33.25" y="260.5" width="160" height="61" as="geometry" />
        </mxCell>
        <mxCell id="SU1acnZ5uy_IHtQN52sj-43" value="&lt;font color=&quot;#000000&quot;&gt;Member-API&lt;/font&gt;" style="editableCssRules=.*;html=1;fontColor=#999999;shape=image;verticalLabelPosition=middle;verticalAlign=middle;labelPosition=right;align=left;spacingLeft=20;part=1;points=[];imageAspect=0;image=data:image/svg+xml,PHN2ZyB4bWxucz0iaHR0cDovL3d3dy53My5vcmcvMjAwMC9zdmciIHhtbG5zOnY9Imh0dHBzOi8vdmVjdGEuaW8vbmFubyIgd2lkdGg9IjIwIiBoZWlnaHQ9IjExLjI1OTk5OTI3NTIwNzUyIiBmaWxsLXJ1bGU9ImV2ZW5vZGQiIHZpZXdCb3g9IjAgMCAyMCAxMS4yNTk5OTkyNzUyMDc1MiI+JiN4YTsJPHN0eWxlIHR5cGU9InRleHQvY3NzIj4mI3hhOwkuc3Qwe2ZpbGw6IzQyODVmNDt9JiN4YTsJLnN0MXtmaWxsOiM2NjlkZjY7fSYjeGE7CS5zdDJ7ZmlsbDojYWVjYmZhO30mI3hhOwk8L3N0eWxlPiYjeGE7CTxwYXRoIGNsYXNzPSJzdDEiIGQ9Ik00LjY4IDEuNDJIMi40MkwwIDUuNjdsMi40MiA0LjI2aDIuMjZMMi4yNyA1LjY3eiIvPiYjeGE7CTxwYXRoIGNsYXNzPSJzdDAiIGQ9Ik0wIDUuNjdsMS4xMSAxLjk3IDEuNDYtMS40NS0uMy0uNTJ6Ii8+JiN4YTsJPHBhdGggY2xhc3M9InN0MiIgZD0iTTEzIDBINy4xMkwzLjgxIDUuNjNsMy4zMSA1LjU5SDEzbDMuMjktNS41OXptLTIuOTMgOC4zNmEyLjY0IDIuNjQgMCAxIDEgMi42Ni0yLjY0IDIuNjUgMi42NSAwIDAgMS0yLjY2IDIuNjR6TTIuNDIgMS40MkwwIDUuNjlsMS4xMSAxLjk3IDEuMTYtMS45NyAyLjQxLTQuMjd6Ii8+JiN4YTsJPHBhdGggY2xhc3M9InN0MSIgZD0iTTEzIC4wOGgwbC0xLjcgMy4zM2EyLjY2IDIuNjYgMCAwIDEtMS4yNSA1IDIuNjIgMi42MiAwIDAgMS0xLjE4LS4yN2wtMS43NSAzLjEySDEzbDMuMjktNS42M3ptMi4zMiA5Ljg1aDIuMjdMMjAgNS42N2wtMi40MS00LjI1aC0yLjI3bDIuNDEgNC4yNXoiPiYjeGE7CTxwYXRoIGNsYXNzPSJzdDAiIGQ9Ik0yMCA1LjY3TDE4Ljg5IDMuN2wtMS40NiAxLjQ2LjMuNTF6Ii8+JiN4YTsJPHBhdGggY2xhc3M9InN0MiIgZD0iTTE3LjU5IDkuOTNMMjAgNS42NWwtMS4xMS0xLjk3LTEuMTYgMS45Ny0yLjQxIDQuMjh6Ii8+JiN4YTs8L3BhdGg+PC9zdmc+;" parent="SU1acnZ5uy_IHtQN52sj-42" vertex="1">
          <mxGeometry width="30" height="16" relative="1" as="geometry">
            <mxPoint x="15" y="22" as="offset" />
          </mxGeometry>
        </mxCell>
        <mxCell id="ItV2FaSNyb-uXS4h-aJt-22" value="" style="group" vertex="1" connectable="0" parent="1">
          <mxGeometry x="1130" y="280" width="600.03" height="190" as="geometry" />
        </mxCell>
        <mxCell id="SU1acnZ5uy_IHtQN52sj-49" value="" style="group" parent="ItV2FaSNyb-uXS4h-aJt-22" vertex="1" connectable="0">
          <mxGeometry width="600.03" height="190" as="geometry" />
        </mxCell>
        <mxCell id="SU1acnZ5uy_IHtQN52sj-48" value="" style="group" parent="SU1acnZ5uy_IHtQN52sj-49" vertex="1" connectable="0">
          <mxGeometry x="320.03" width="280" height="190" as="geometry" />
        </mxCell>
        <mxCell id="3ZfG_3-aHI2Txs_DAWEP-417" value="Users" style="rounded=1;absoluteArcSize=1;arcSize=2;html=1;strokeColor=none;gradientColor=none;shadow=0;dashed=0;strokeColor=none;fontSize=12;fontColor=#9E9E9E;align=left;verticalAlign=top;spacing=10;spacingTop=-4;fillColor=#F1F8E9;" parent="SU1acnZ5uy_IHtQN52sj-48" vertex="1">
          <mxGeometry x="160" width="90" height="190" as="geometry" />
        </mxCell>
        <mxCell id="3ZfG_3-aHI2Txs_DAWEP-447" value="" style="strokeColor=#dddddd;fillColor=#ffffff;shadow=1;strokeWidth=1;rounded=1;absoluteArcSize=1;arcSize=2;labelPosition=center;verticalLabelPosition=middle;align=center;verticalAlign=bottom;spacingLeft=0;fontColor=#999999;fontSize=12;whiteSpace=wrap;spacingBottom=2;html=1;" parent="SU1acnZ5uy_IHtQN52sj-48" vertex="1">
          <mxGeometry x="170" y="30" width="70" height="69" as="geometry" />
        </mxCell>
        <mxCell id="3ZfG_3-aHI2Txs_DAWEP-448" value="" style="dashed=0;connectable=0;html=1;fillColor=#757575;strokeColor=none;shape=mxgraph.gcp2.laptop;part=1;" parent="3ZfG_3-aHI2Txs_DAWEP-447" vertex="1">
          <mxGeometry x="0.5" width="50" height="33" relative="1" as="geometry">
            <mxPoint x="-25" y="18.5" as="offset" />
          </mxGeometry>
        </mxCell>
        <mxCell id="3ZfG_3-aHI2Txs_DAWEP-450" value="" style="strokeColor=#dddddd;fillColor=#ffffff;shadow=1;strokeWidth=1;rounded=1;absoluteArcSize=1;arcSize=2;labelPosition=center;verticalLabelPosition=middle;align=center;verticalAlign=bottom;spacingLeft=0;fontColor=#999999;fontSize=12;whiteSpace=wrap;spacingBottom=2;html=1;" parent="SU1acnZ5uy_IHtQN52sj-48" vertex="1">
          <mxGeometry x="170" y="115" width="70" height="65" as="geometry" />
        </mxCell>
        <mxCell id="3ZfG_3-aHI2Txs_DAWEP-451" value="" style="dashed=0;connectable=0;html=1;fillColor=#757575;strokeColor=none;shape=mxgraph.gcp2.mobile_devices;part=1;" parent="3ZfG_3-aHI2Txs_DAWEP-450" vertex="1">
          <mxGeometry x="0.5" width="50" height="36.5" relative="1" as="geometry">
            <mxPoint x="-25" y="16.75" as="offset" />
          </mxGeometry>
        </mxCell>
        <mxCell id="z7NiXECVrPjFXj3bx5df-53" value="Front&lt;div&gt;&lt;br&gt;&lt;/div&gt;" style="rounded=1;absoluteArcSize=1;arcSize=2;html=1;strokeColor=none;gradientColor=none;shadow=0;dashed=0;strokeColor=none;fontSize=12;fontColor=#9E9E9E;align=left;verticalAlign=top;spacing=10;spacingTop=-4;fillColor=#F3E5F5;" parent="SU1acnZ5uy_IHtQN52sj-48" vertex="1">
          <mxGeometry y="40" width="90" height="110" as="geometry" />
        </mxCell>
        <mxCell id="z7NiXECVrPjFXj3bx5df-51" value="" style="strokeColor=#dddddd;shadow=1;strokeWidth=1;rounded=1;absoluteArcSize=1;arcSize=2;labelPosition=center;verticalLabelPosition=middle;align=center;verticalAlign=bottom;spacingLeft=0;fontColor=#999999;fontSize=12;whiteSpace=wrap;spacingBottom=2;html=1;" parent="SU1acnZ5uy_IHtQN52sj-48" vertex="1">
          <mxGeometry x="7.5" y="69" width="75" height="70" as="geometry" />
        </mxCell>
        <mxCell id="z7NiXECVrPjFXj3bx5df-52" value="" style="sketch=0;dashed=0;connectable=0;html=1;fillColor=#757575;strokeColor=none;shape=mxgraph.gcp2.application;part=1;" parent="z7NiXECVrPjFXj3bx5df-51" vertex="1">
          <mxGeometry x="0.5" width="50" height="40" relative="1" as="geometry">
            <mxPoint x="-25" y="15" as="offset" />
          </mxGeometry>
        </mxCell>
        <mxCell id="z7NiXECVrPjFXj3bx5df-57" value="" style="edgeStyle=orthogonalEdgeStyle;fontSize=12;html=1;endArrow=blockThin;endFill=1;rounded=0;strokeWidth=2;endSize=4;startSize=4;dashed=0;strokeColor=#4284F3;exitX=1.015;exitY=0.582;exitDx=0;exitDy=0;exitPerimeter=0;" parent="SU1acnZ5uy_IHtQN52sj-48" edge="1">
          <mxGeometry width="100" relative="1" as="geometry">
            <mxPoint x="90" y="99.0200000000002" as="sourcePoint" />
            <mxPoint x="160.6500000000001" y="98.99999999999999" as="targetPoint" />
          </mxGeometry>
        </mxCell>
        <mxCell id="z7NiXECVrPjFXj3bx5df-1" value="" style="strokeColor=#dddddd;shadow=1;strokeWidth=1;rounded=1;absoluteArcSize=1;arcSize=2;" parent="ItV2FaSNyb-uXS4h-aJt-22" vertex="1">
          <mxGeometry x="150" y="73" width="100" height="44" as="geometry" />
        </mxCell>
        <mxCell id="z7NiXECVrPjFXj3bx5df-2" value="Gateway" style="sketch=0;dashed=0;connectable=0;html=1;fillColor=#757575;strokeColor=none;shape=mxgraph.gcp2.gateway;part=1;labelPosition=right;verticalLabelPosition=middle;align=left;verticalAlign=middle;spacingLeft=5;fontSize=12;" parent="z7NiXECVrPjFXj3bx5df-1" vertex="1">
          <mxGeometry y="0.5" width="32" height="32" relative="1" as="geometry">
            <mxPoint x="5" y="-16" as="offset" />
          </mxGeometry>
        </mxCell>
        <mxCell id="ItV2FaSNyb-uXS4h-aJt-7" value="" style="edgeStyle=orthogonalEdgeStyle;shape=connector;rounded=0;orthogonalLoop=1;jettySize=auto;html=1;dashed=0;strokeColor=#4284F3;strokeWidth=2;align=center;verticalAlign=middle;fontFamily=Helvetica;fontSize=12;fontColor=default;labelBackgroundColor=default;startSize=4;endArrow=blockThin;endFill=1;endSize=4;" edge="1" parent="ItV2FaSNyb-uXS4h-aJt-22" source="z7NiXECVrPjFXj3bx5df-53" target="z7NiXECVrPjFXj3bx5df-1">
          <mxGeometry relative="1" as="geometry" />
        </mxCell>
      </root>
    </mxGraphModel>
  </diagram>
</mxfile>
